<svg width="554" height="515" viewBox="0 0 554 515" fill="none" xmlns="http://www.w3.org/2000/svg">
<path d="M276.811 514.876C429.69 514.876 553.622 443.324 553.622 355.059C553.622 266.794 429.69 195.241 276.811 195.241C123.933 195.241 0 266.794 0 355.059C0 443.324 123.933 514.876 276.811 514.876Z" fill="#F0F0F0"/>
<path d="M435.482 453.753C458.17 453.753 476.562 443.134 476.562 430.036C476.562 416.937 458.17 406.319 435.482 406.319C412.794 406.319 394.401 416.937 394.401 430.036C394.401 443.134 412.794 453.753 435.482 453.753Z" fill="#E0E0E0"/>
<path d="M62.6331 403.616L16.6734 377.091C15.047 376.155 15.047 374.634 16.6734 373.698L269.896 227.464C270.804 227.009 271.806 226.771 272.821 226.771C273.837 226.771 274.839 227.009 275.746 227.464L321.694 253.99C323.309 254.926 323.309 256.447 321.694 257.383L68.4833 403.616C67.5762 404.074 66.5743 404.312 65.5582 404.312C64.5421 404.312 63.5402 404.074 62.6331 403.616Z" fill="#E0E0E0"/>
<path d="M221.982 362.079L258.979 340.691C262.794 338.479 264.701 335.601 264.701 332.711C264.701 329.821 264.701 327.563 264.701 327.563L220.204 302.348C219.133 301.645 218.241 300.702 217.601 299.592C216.961 298.483 216.59 297.238 216.518 295.959V250.327L151.896 287.664V333.296C151.97 334.573 152.342 335.815 152.982 336.922C153.622 338.029 154.512 338.971 155.582 339.673L194.369 362.067C201.998 366.479 214.365 366.479 221.982 362.079Z" fill="#FFC100"/>
<g opacity="0.5">
<path d="M221.982 362.079L258.979 340.691C262.794 338.479 264.701 335.601 264.701 332.711C264.701 329.821 264.701 327.563 264.701 327.563L220.204 302.348C219.133 301.645 218.241 300.702 217.601 299.592C216.961 298.483 216.59 297.238 216.518 295.959V250.327L151.896 287.664V333.296C151.97 334.573 152.342 335.815 152.982 336.922C153.622 338.029 154.512 338.971 155.582 339.673L194.369 362.067C201.998 366.479 214.365 366.479 221.982 362.079Z" fill="black"/>
</g>
<path d="M167.411 341.381V346.506L155.57 339.684C154.499 338.982 153.608 338.038 152.968 336.928C152.327 335.819 151.957 334.575 151.885 333.296V287.664L164.205 280.562C164.451 283.686 164.732 286.915 164.989 290.062L156.354 295.058V330.698C156.42 331.976 156.787 333.219 157.426 334.327C158.064 335.436 158.956 336.377 160.028 337.075L167.411 341.381Z" fill="#FFC100"/>
<path opacity="0.7" d="M167.411 341.381V346.506L155.57 339.684C154.499 338.982 153.608 338.038 152.968 336.928C152.327 335.819 151.957 334.575 151.885 333.296V287.664L164.205 280.562C164.451 283.686 164.732 286.915 164.989 290.062L156.354 295.058V330.698C156.42 331.976 156.787 333.219 157.426 334.327C158.064 335.436 158.956 336.377 160.028 337.075L167.411 341.381Z" fill="black"/>
<path d="M156.354 330.733C156.422 332.011 156.792 333.255 157.432 334.364C158.073 335.472 158.966 336.413 160.04 337.11L194.357 356.931C201.986 361.342 214.354 361.342 221.982 356.931L259.003 335.542C266.631 331.143 266.631 324.006 259.003 319.606L224.662 299.774C223.588 299.077 222.695 298.135 222.054 297.027C221.414 295.919 221.044 294.675 220.976 293.397V257.757L156.354 295.093V330.733Z" fill="#FFC100"/>
<path opacity="0.3" d="M156.354 330.733C156.422 332.011 156.792 333.255 157.432 334.364C158.073 335.472 158.966 336.413 160.04 337.11L194.357 356.931C201.986 361.342 214.354 361.342 221.982 356.931L259.003 335.542C266.631 331.143 266.631 324.006 259.003 319.606L224.662 299.774C223.588 299.077 222.695 298.135 222.054 297.027C221.414 295.919 221.044 294.675 220.976 293.397V257.757L156.354 295.093V330.733Z" fill="black"/>
<path opacity="0.7" d="M232.162 304.115L224.662 299.785C223.588 299.088 222.695 298.147 222.054 297.039C221.414 295.931 221.044 294.687 220.976 293.409V257.757L156.354 295.093V330.733C156.422 332.011 156.792 333.255 157.432 334.364C158.073 335.472 158.966 336.413 160.04 337.11L167.411 341.369L232.162 304.115Z" fill="#FFC100"/>
<path opacity="0.6" d="M232.162 304.115L224.662 299.785C223.588 299.088 222.695 298.147 222.054 297.039C221.414 295.931 221.044 294.687 220.976 293.409V257.757L156.354 295.093V330.733C156.422 332.011 156.792 333.255 157.432 334.364C158.073 335.472 158.966 336.413 160.04 337.11L167.411 341.369L232.162 304.115Z" fill="black"/>
<path d="M264.713 327.574V332.769C264.713 335.659 262.794 338.526 258.991 340.737L221.994 362.021C217.94 364.192 213.407 365.319 208.808 365.297V360.172C213.407 360.194 217.94 359.068 221.994 356.896L258.991 335.495C262.794 333.354 264.713 330.429 264.713 327.574Z" fill="#FFC100"/>
<path opacity="0.2" d="M264.713 327.574V332.769C264.713 335.659 262.794 338.526 258.991 340.737L221.994 362.021C217.94 364.192 213.407 365.319 208.808 365.297V360.172C213.407 360.194 217.94 359.068 221.994 356.896L258.991 335.495C262.794 333.354 264.713 330.429 264.713 327.574Z" fill="black"/>
<path d="M52.5934 379.946C53.99 380.621 55.5258 380.958 57.0767 380.929C58.6276 380.901 60.15 380.508 61.5209 379.782L311.421 235.503C312.759 234.626 313.873 233.447 314.671 232.061C315.47 230.675 315.932 229.12 316.019 227.523V8.79335C315.965 7.24441 315.546 5.73017 314.795 4.37398C314.045 3.01779 312.985 1.858 311.702 0.989096C310.308 0.311542 308.773 -0.0268097 307.224 0.00165866C305.674 0.030127 304.154 0.424613 302.786 1.15291L52.8859 145.432C51.5464 146.305 50.4318 147.481 49.6328 148.866C48.8338 150.25 48.3729 151.804 48.2876 153.4V372.2C48.355 373.737 48.7791 375.237 49.5265 376.581C50.2738 377.925 51.3238 379.077 52.5934 379.946Z" fill="#FFC100"/>
<path opacity="0.3" d="M52.5934 379.946C53.99 380.621 55.5258 380.958 57.0767 380.929C58.6276 380.901 60.15 380.508 61.5209 379.782L311.421 235.503C312.759 234.626 313.873 233.447 314.671 232.061C315.47 230.675 315.932 229.12 316.019 227.523V8.79335C315.965 7.24441 315.546 5.73017 314.795 4.37398C314.045 3.01779 312.985 1.858 311.702 0.989096C310.308 0.311542 308.773 -0.0268097 307.224 0.00165866C305.674 0.030127 304.154 0.424613 302.786 1.15291L52.8859 145.432C51.5464 146.305 50.4318 147.481 49.6328 148.866C48.8338 150.25 48.3729 151.804 48.2876 153.4V372.2C48.355 373.737 48.7791 375.237 49.5265 376.581C50.2738 377.925 51.3238 379.077 52.5934 379.946Z" fill="black"/>
<path d="M61.5212 379.77L311.421 235.491C312.762 234.619 313.878 233.443 314.679 232.059C315.48 230.674 315.944 229.12 316.031 227.523V8.78164C316.031 5.8448 313.96 4.66305 311.421 6.12562L61.5212 150.405C60.1766 151.286 59.0592 152.472 58.2601 153.867C57.461 155.262 57.0028 156.826 56.9229 158.431V377.114C56.9229 380.051 58.9821 381.245 61.5212 379.77Z" fill="#FFC100"/>
<path d="M61.5212 379.77L311.421 235.491C312.762 234.619 313.878 233.443 314.679 232.059C315.48 230.674 315.944 229.12 316.031 227.523V8.78164C316.031 5.8448 313.96 4.66305 311.421 6.12562L61.5212 150.405C60.1766 151.286 59.0592 152.472 58.2601 153.867C57.461 155.262 57.0028 156.826 56.9229 158.431V377.114C56.9229 380.051 58.9821 381.245 61.5212 379.77Z" fill="#FFC100"/>
<path opacity="0.5" d="M61.5212 379.77L311.421 235.491C312.762 234.619 313.878 233.443 314.679 232.059C315.48 230.674 315.944 229.12 316.031 227.523V8.78164C316.031 5.8448 313.96 4.66305 311.421 6.12562L61.5212 150.405C60.1766 151.286 59.0592 152.472 58.2601 153.867C57.461 155.262 57.0028 156.826 56.9229 158.431V377.114C56.9229 380.051 58.9821 381.245 61.5212 379.77Z" fill="black"/>
<path d="M60.8426 380.121C59.5436 380.677 58.1409 380.949 56.7284 380.918C55.316 380.888 53.9262 380.557 52.6522 379.946C51.3686 379.074 50.3086 377.912 49.5584 376.554C48.8082 375.196 48.389 373.68 48.3347 372.13V347.559L56.9697 352.555V377.126C56.9112 379.805 58.6078 381.011 60.8426 380.121Z" fill="#FFC100"/>
<path opacity="0.7" d="M60.8426 380.121C59.5436 380.677 58.1409 380.949 56.7284 380.918C55.316 380.888 53.9262 380.557 52.6522 379.946C51.3686 379.074 50.3086 377.912 49.5584 376.554C48.8082 375.196 48.389 373.68 48.3347 372.13V347.559L56.9697 352.555V377.126C56.9112 379.805 58.6078 381.011 60.8426 380.121Z" fill="black"/>
<path d="M56.9229 352.52V377.091C56.9229 380.028 58.9821 381.221 61.5212 379.747L311.421 235.491C312.762 234.619 313.878 233.443 314.679 232.059C315.48 230.674 315.944 229.12 316.031 227.523V202.893L56.9229 352.52Z" fill="#FFC100"/>
<g opacity="0.5">
<path d="M56.9229 352.52V377.091C56.9229 380.028 58.9821 381.221 61.5212 379.747L311.421 235.491C312.762 234.619 313.878 233.443 314.679 232.059C315.48 230.674 315.944 229.12 316.031 227.523V202.893L56.9229 352.52Z" fill="black"/>
</g>
<path d="M65.5581 334.372V161.204C65.6071 160.245 65.883 159.311 66.363 158.479C66.843 157.648 67.5135 156.941 68.3194 156.419L304.67 19.9791C306.191 19.1015 307.431 19.8152 307.431 21.582V194.703C307.38 195.662 307.103 196.594 306.623 197.426C306.143 198.257 305.474 198.964 304.67 199.489L68.3194 335.917C66.7867 336.841 65.5581 336.127 65.5581 334.372Z" fill="#FAFAFA"/>
<path d="M186.471 287.699C185.213 288.517 184.167 289.621 183.416 290.92C182.666 292.219 182.233 293.677 182.154 295.175C182.154 297.925 184.084 299.048 186.471 297.668C187.727 296.848 188.773 295.744 189.523 294.445C190.273 293.146 190.707 291.689 190.789 290.191C190.789 287.43 188.858 286.318 186.471 287.699Z" fill="#FFC100"/>
<path opacity="0.5" d="M186.471 287.699C185.213 288.517 184.167 289.621 183.416 290.92C182.666 292.219 182.233 293.677 182.154 295.175C182.154 297.925 184.084 299.048 186.471 297.668C187.727 296.848 188.773 295.744 189.523 294.445C190.273 293.146 190.707 291.689 190.789 290.191C190.789 287.43 188.858 286.318 186.471 287.699Z" fill="white"/>
<path d="M58.2684 153.821C57.441 155.222 56.9746 156.806 56.9111 158.431V352.52L48.2761 347.524V153.4C48.3434 151.794 48.8099 150.23 49.6334 148.849L58.2684 153.821Z" fill="#FFC100"/>
<path opacity="0.7" d="M58.2684 153.821C57.441 155.222 56.9746 156.806 56.9111 158.431V352.52L48.2761 347.524V153.4C48.3434 151.794 48.8099 150.23 49.6334 148.849L58.2684 153.821Z" fill="black"/>
<path d="M147.93 429.813L210.364 465.968C211.451 466.523 212.654 466.812 213.874 466.812C215.094 466.812 216.297 466.523 217.384 465.968L401.831 359.68C403.773 358.51 403.773 356.755 401.831 355.632L339.385 319.477C338.298 318.923 337.096 318.634 335.875 318.634C334.655 318.634 333.452 318.923 332.365 319.477L147.93 425.777C145.999 426.888 145.987 428.714 147.93 429.813Z" fill="#E0E0E0"/>
<path d="M398.052 349.15C398.011 348.714 397.855 348.297 397.6 347.942C397.345 347.586 397.001 347.304 396.601 347.126L337.946 313.276C336.859 312.722 335.656 312.432 334.436 312.432C333.216 312.432 332.013 312.722 330.926 313.276L151.908 416.779C151.511 416.96 151.169 417.243 150.917 417.598C150.664 417.953 150.51 418.369 150.469 418.803V424.958C150.508 425.392 150.663 425.809 150.918 426.163C151.174 426.517 151.52 426.796 151.92 426.97L210.551 460.832C211.639 461.383 212.841 461.671 214.061 461.671C215.281 461.671 216.483 461.383 217.571 460.832L396.589 357.481C396.988 357.304 397.332 357.025 397.587 356.671C397.842 356.317 397.999 355.902 398.04 355.468L398.052 349.15Z" fill="#FFC100"/>
<path opacity="0.5" d="M398.052 349.15C398.011 348.714 397.855 348.297 397.6 347.942C397.345 347.586 397.001 347.304 396.601 347.126L337.946 313.276C336.859 312.722 335.656 312.432 334.436 312.432C333.216 312.432 332.013 312.722 330.926 313.276L151.908 416.779C151.511 416.96 151.169 417.243 150.917 417.598C150.664 417.953 150.51 418.369 150.469 418.803V424.958C150.508 425.392 150.663 425.809 150.918 426.163C151.174 426.517 151.52 426.796 151.92 426.97L210.551 460.832C211.639 461.383 212.841 461.671 214.061 461.671C215.281 461.671 216.483 461.383 217.571 460.832L396.589 357.481C396.988 357.304 397.332 357.025 397.587 356.671C397.842 356.317 397.999 355.902 398.04 355.468L398.052 349.15Z" fill="black"/>
<path d="M210.586 454.537L151.954 420.827C150.024 419.716 150.012 417.914 151.954 416.791L330.972 313.288C332.059 312.733 333.262 312.444 334.482 312.444C335.703 312.444 336.906 312.733 337.993 313.288L396.647 347.149C398.578 348.319 398.578 350.074 396.647 351.198L217.629 454.548C216.538 455.102 215.33 455.39 214.106 455.388C212.882 455.386 211.675 455.094 210.586 454.537Z" fill="#FFC100"/>
<path opacity="0.3" d="M210.586 454.537L151.954 420.827C150.024 419.716 150.012 417.914 151.954 416.791L330.972 313.288C332.059 312.733 333.262 312.444 334.482 312.444C335.703 312.444 336.906 312.733 337.993 313.288L396.647 347.149C398.578 348.319 398.578 350.074 396.647 351.198L217.629 454.548C216.538 455.102 215.33 455.39 214.106 455.388C212.882 455.386 211.675 455.094 210.586 454.537Z" fill="black"/>
<path d="M213.862 455.367V461.662C212.719 461.649 211.594 461.373 210.574 460.855L151.966 426.994C151.565 426.817 151.217 426.536 150.96 426.18C150.703 425.824 150.546 425.406 150.504 424.969V418.803C150.549 419.239 150.708 419.655 150.965 420.011C151.221 420.366 151.567 420.648 151.966 420.827L210.574 454.548C211.589 455.08 212.717 455.361 213.862 455.367Z" fill="#FFC100"/>
<path opacity="0.7" d="M213.862 455.367V461.662C212.719 461.649 211.594 461.373 210.574 460.855L151.966 426.994C151.565 426.817 151.217 426.536 150.96 426.18C150.703 425.824 150.546 425.406 150.504 424.969V418.803C150.549 419.239 150.708 419.655 150.965 420.011C151.221 420.366 151.567 420.648 151.966 420.827L210.574 454.548C211.589 455.08 212.717 455.361 213.862 455.367Z" fill="black"/>
<path d="M288.734 356.872L295.415 360.734C295.548 360.804 295.697 360.84 295.848 360.839L302.002 357.411L294.818 353.362L288.734 356.872Z" fill="#37474F"/>
<path d="M296.772 352.239L303.488 356.112C303.612 356.172 303.749 356.2 303.886 356.194H304.132L310.04 352.777L302.856 348.74L296.772 352.239Z" fill="#37474F"/>
<path d="M275.196 364.7L281.901 368.573C282.025 368.631 282.161 368.659 282.299 368.655L292.267 363.027L285.083 358.99L275.196 364.7Z" fill="#37474F"/>
<path d="M267.158 369.345L273.851 373.206C273.978 373.269 274.118 373.301 274.26 373.3L280.427 369.872L273.242 365.835L267.158 369.345Z" fill="#37474F"/>
<path d="M230.418 430.094L236.585 426.666L229.4 422.629L223.316 426.139L230.021 430.024C230.148 430.072 230.283 430.096 230.418 430.094Z" fill="#37474F"/>
<path d="M259.108 373.979L265.789 377.84C265.921 377.914 266.071 377.95 266.222 377.945L272.377 374.517L265.192 370.468L259.108 373.979Z" fill="#37474F"/>
<path d="M303.909 358.616L297.825 362.126L304.518 365.987C304.643 366.055 304.785 366.087 304.927 366.081L311.093 362.652L303.909 358.616Z" fill="#37474F"/>
<path d="M281.433 390.102L287.599 386.674L280.403 382.637L274.319 386.147L281.023 390.02C281.151 390.08 281.292 390.108 281.433 390.102Z" fill="#37474F"/>
<path d="M313.024 361.447L319.179 358.019L311.994 353.971L305.91 357.481L312.626 361.354C312.749 361.418 312.886 361.45 313.024 361.447Z" fill="#37474F"/>
<path d="M273.394 394.782L279.549 391.354L272.365 387.305L266.281 390.816L272.962 394.677C273.094 394.751 273.243 394.787 273.394 394.782Z" fill="#37474F"/>
<path d="M265.356 399.462L271.511 396.034L264.326 391.986L258.242 395.496L264.947 399.369C265.074 399.431 265.214 399.463 265.356 399.462Z" fill="#37474F"/>
<path d="M297.509 380.858L310.438 373.522L294.175 364.232L287.283 368.234L295.789 373.136C295.858 373.167 295.917 373.216 295.96 373.278C296.003 373.34 296.029 373.412 296.035 373.487C296.031 373.554 296.01 373.618 295.973 373.674C295.936 373.729 295.884 373.774 295.824 373.803L290.454 376.904L297.123 380.753C297.242 380.818 297.374 380.854 297.509 380.858Z" fill="#37474F"/>
<path d="M243.031 383.269L249.736 387.142C249.86 387.201 249.996 387.23 250.134 387.224L256.3 383.795L249.104 379.759L243.031 383.269Z" fill="#37474F"/>
<path d="M289.471 385.504L295.637 382.075L288.453 378.039L282.369 381.549L289.026 385.387C289.161 385.465 289.315 385.505 289.471 385.504Z" fill="#37474F"/>
<path d="M197.856 427.906L204.022 424.478L196.826 420.43L190.742 423.94L197.423 427.789C197.555 427.864 197.704 427.904 197.856 427.906Z" fill="#37474F"/>
<path d="M178.702 420.406L185.418 424.291C185.54 424.344 185.671 424.372 185.804 424.373H186.05L191.971 420.956L184.775 416.919L178.702 420.406Z" fill="#37474F"/>
<path d="M209.065 431.931H209.311L215.161 428.515L207.977 424.478L201.893 427.988L208.609 431.861C208.753 431.919 208.909 431.943 209.065 431.931Z" fill="#37474F"/>
<path d="M214.342 439.373L220.508 435.944L213.312 431.908L207.228 435.418L213.909 439.267C214.04 439.344 214.19 439.38 214.342 439.373Z" fill="#37474F"/>
<path d="M186.74 415.761L193.445 419.646C193.571 419.697 193.706 419.725 193.843 419.728L200.009 416.299L192.813 412.263L186.74 415.761Z" fill="#37474F"/>
<path d="M222.38 434.739L228.535 431.299L221.35 427.263L215.278 430.773L221.982 434.646C222.105 434.708 222.242 434.74 222.38 434.739Z" fill="#37474F"/>
<path d="M210.867 401.802L217.559 405.675C217.688 405.734 217.828 405.762 217.969 405.757L224.135 402.341L216.939 398.292L210.867 401.802Z" fill="#37474F"/>
<path d="M218.905 397.192L225.586 401.054C225.715 401.125 225.86 401.162 226.007 401.159L232.173 397.731L224.989 393.682L218.905 397.192Z" fill="#37474F"/>
<path d="M226.943 392.547L233.613 396.408C233.746 396.48 233.895 396.516 234.046 396.514L240.212 393.085L233.028 389.049L226.943 392.547Z" fill="#37474F"/>
<path d="M202.817 406.483L209.498 410.332C209.626 410.407 209.771 410.447 209.919 410.449L216.097 407.009L208.889 402.972L202.817 406.483Z" fill="#37474F"/>
<path d="M234.993 387.914L241.698 391.787C241.823 391.842 241.959 391.87 242.096 391.869L248.262 388.44L241.066 384.404L234.993 387.914Z" fill="#37474F"/>
<path d="M194.779 411.163L201.483 415.024C201.61 415.087 201.751 415.119 201.892 415.118L208.047 411.689L200.863 407.653L194.779 411.163Z" fill="#37474F"/>
<path d="M251.07 378.624L257.786 382.508C257.908 382.561 258.039 382.589 258.172 382.59L264.338 379.162L257.154 375.114L251.07 378.624Z" fill="#37474F"/>
<path d="M271.16 377.524L277.841 381.373C277.973 381.446 278.123 381.482 278.274 381.479H278.519L284.428 378.062L277.244 374.025L271.16 377.524Z" fill="#37474F"/>
<path d="M314.557 341.978L321.238 345.827C321.367 345.897 321.512 345.933 321.659 345.932L327.825 342.504L320.629 338.467L314.557 341.978Z" fill="#37474F"/>
<path d="M322.595 337.332L329.276 341.182C329.405 341.254 329.55 341.29 329.697 341.287L335.863 337.859L328.679 333.822L322.595 337.332Z" fill="#37474F"/>
<path d="M263.121 382.157L269.802 386.018C269.932 386.088 270.077 386.124 270.224 386.124L276.39 382.695L269.206 378.647L263.121 382.157Z" fill="#37474F"/>
<path d="M330.633 332.687L337.314 336.549C337.444 336.617 337.589 336.654 337.736 336.654L343.902 333.214L336.718 329.177L330.633 332.687Z" fill="#37474F"/>
<path d="M286.312 376.833H286.557L292.466 373.417L285.282 369.38L279.198 372.89L285.879 376.74C286.013 376.807 286.162 376.839 286.312 376.833Z" fill="#37474F"/>
<path d="M323.636 347.219L330.306 351.069C330.442 351.143 330.595 351.183 330.75 351.186L336.905 347.758L329.721 343.709L323.636 347.219Z" fill="#37474F"/>
<path d="M339.725 337.929L346.394 341.779C346.525 341.856 346.675 341.896 346.827 341.896L352.993 338.467L345.785 334.431L339.725 337.929Z" fill="#37474F"/>
<path d="M338.765 346.541L344.931 343.113L337.736 339.064L331.651 342.574L338.356 346.447C338.483 346.51 338.623 346.542 338.765 346.541Z" fill="#37474F"/>
<path d="M363.582 342.422C363.7 342.474 363.828 342.502 363.957 342.504H364.214L370.123 339.099L353.847 329.809L347.763 333.319L363.582 342.422Z" fill="#37474F"/>
<path d="M255.071 386.802L261.764 390.663C261.892 390.736 262.038 390.772 262.185 390.769H262.431L268.351 387.364L261.156 383.316L255.071 386.802Z" fill="#37474F"/>
<path d="M347.88 351.783H348.126L354.034 348.366L346.85 344.329L340.766 347.84L347.447 351.689C347.581 351.756 347.73 351.788 347.88 351.783Z" fill="#37474F"/>
<path d="M355.918 347.138L362.085 343.709L354.889 339.673L348.804 343.183L355.474 347.032C355.611 347.104 355.764 347.14 355.918 347.138Z" fill="#37474F"/>
<path d="M214.868 409.993L221.549 413.842C221.681 413.918 221.83 413.958 221.982 413.959L228.137 410.531L220.952 406.483L214.868 409.993Z" fill="#37474F"/>
<path d="M198.792 419.353L205.461 423.203C205.594 423.275 205.743 423.312 205.894 423.308H206.14L212.06 419.891L204.864 415.843L198.792 419.353Z" fill="#37474F"/>
<path d="M225.142 422.653L231.308 419.224L224.1 415.176L218.028 418.686L224.744 422.559C224.866 422.624 225.003 422.657 225.142 422.653Z" fill="#37474F"/>
<path d="M217.08 427.286L223.246 423.858L216.05 419.821L209.966 423.331L216.682 427.204C216.806 427.264 216.942 427.292 217.08 427.286Z" fill="#37474F"/>
<path d="M233.18 418.008H233.437L239.346 414.603L232.162 410.554L226.077 414.065L232.747 417.914C232.88 417.983 233.03 418.015 233.18 418.008Z" fill="#37474F"/>
<path d="M247.033 391.447L253.726 395.309C253.857 395.373 254.001 395.406 254.147 395.402H254.393L260.302 391.986L253.117 387.949L247.033 391.447Z" fill="#37474F"/>
<path d="M249.268 408.717L255.434 405.289L248.238 401.253L242.154 404.763L248.835 408.612C248.968 408.682 249.117 408.719 249.268 408.717Z" fill="#37474F"/>
<path d="M241.23 413.363L247.384 409.993L240.2 405.956L234.116 409.466L240.832 413.351C240.963 413.38 241.098 413.384 241.23 413.363Z" fill="#37474F"/>
<path d="M230.957 400.738L237.626 404.587C237.759 404.66 237.908 404.696 238.059 404.692L244.225 401.264L237.041 397.227L230.957 400.738Z" fill="#37474F"/>
<path d="M206.83 414.673L213.499 418.522C213.636 418.595 213.789 418.631 213.944 418.628L220.098 415.199L212.914 411.163L206.83 414.673Z" fill="#37474F"/>
<path d="M238.995 396.093L245.676 399.942C245.808 400.015 245.958 400.051 246.109 400.047L252.263 396.619L245.079 392.582L238.995 396.093Z" fill="#37474F"/>
<path d="M222.93 405.371L229.599 409.232C229.732 409.305 229.881 409.341 230.032 409.338H230.278L236.198 405.933L229.003 401.884L222.93 405.371Z" fill="#37474F"/>
<path d="M257.306 404.072L263.472 400.644L256.276 396.607L250.204 400.118L256.897 403.979C257.022 404.047 257.164 404.079 257.306 404.072Z" fill="#37474F"/>
<path d="M304.834 347.594L311.538 351.467C311.663 351.524 311.799 351.552 311.936 351.549L318.102 348.12L310.906 344.084L304.834 347.594Z" fill="#37474F"/>
<path d="M176.736 421.541L170.652 425.051L177.368 428.924C177.492 428.984 177.629 429.012 177.766 429.006H178.012L183.932 425.59L176.736 421.541Z" fill="#37474F"/>
<path d="M188.788 425.075L179.743 430.293L186.46 434.178C186.581 434.231 186.713 434.259 186.846 434.26H187.103L195.972 429.135L188.788 425.075Z" fill="#37474F"/>
<path d="M166.978 414.439L159.618 418.686L166.311 422.536C166.439 422.608 166.585 422.644 166.732 422.641L174.162 418.487L166.978 414.439Z" fill="#37474F"/>
<path d="M205.274 436.553L197.926 440.8L204.595 444.65C204.729 444.72 204.877 444.756 205.028 444.755L212.458 440.59L205.274 436.553Z" fill="#37474F"/>
<path d="M199.985 429.111L188.835 435.547L195.539 439.42C195.664 439.477 195.8 439.505 195.937 439.502H196.183L207.181 433.16L199.985 429.111Z" fill="#37474F"/>
<path d="M179.545 415.246L185.699 411.818L178.468 407.781L172.384 411.292L179.065 415.153C179.212 415.23 179.379 415.263 179.545 415.246Z" fill="#37474F"/>
<path d="M207.006 446.042L213.687 449.903C213.818 449.966 213.962 449.998 214.108 449.997L223.234 444.86L216.05 440.824L207.006 446.042Z" fill="#37474F"/>
<path d="M187.583 410.601L193.749 407.173L186.553 403.136L180.48 406.646L187.185 410.519C187.31 410.577 187.446 410.605 187.583 410.601Z" fill="#37474F"/>
<path d="M223.246 390.02H223.492L229.412 386.603L222.216 382.567L216.144 386.077L222.825 389.938C222.956 390.002 223.101 390.03 223.246 390.02Z" fill="#37474F"/>
<path d="M231.284 385.422L237.45 381.993L230.266 377.945L224.182 381.455L230.875 385.316C230.999 385.387 231.141 385.424 231.284 385.422Z" fill="#37474F"/>
<path d="M215.208 394.653H215.453L221.304 391.237L214.119 387.2L208.035 390.71L214.74 394.548C214.883 394.625 215.045 394.662 215.208 394.653Z" fill="#37474F"/>
<path d="M203.659 401.323H203.917L209.826 397.918L202.641 393.869L196.557 397.38L203.25 401.241C203.376 401.306 203.518 401.334 203.659 401.323Z" fill="#37474F"/>
<path d="M195.621 405.968L201.787 402.54L194.603 398.491L188.519 402.001L195.223 405.874C195.346 405.938 195.483 405.97 195.621 405.968Z" fill="#37474F"/>
<path d="M366.999 353.678L373.715 357.563C373.837 357.612 373.969 357.636 374.101 357.633H374.346L380.197 354.216L373.013 350.18L366.999 353.678Z" fill="#37474F"/>
<path d="M325.087 377.863L331.756 381.713C331.887 381.792 332.037 381.833 332.189 381.83L338.356 378.401L331.171 374.353L325.087 377.863Z" fill="#37474F"/>
<path d="M350.91 362.968L357.591 366.818C357.721 366.888 357.866 366.924 358.013 366.923H358.258L372.217 358.861L365.033 354.825L350.91 362.968Z" fill="#37474F"/>
<path d="M333.126 373.23L339.795 377.067C339.929 377.147 340.083 377.188 340.24 377.184L346.406 373.756L339.21 369.719L333.126 373.23Z" fill="#37474F"/>
<path d="M341.176 368.585L347.822 372.411C347.956 372.501 348.116 372.546 348.278 372.539L354.444 369.111L347.248 365.074L341.176 368.585Z" fill="#37474F"/>
<path d="M239.311 380.741H239.568L245.477 377.325L238.293 373.276L232.209 376.787L238.878 380.636C239.011 380.707 239.16 380.744 239.311 380.741Z" fill="#37474F"/>
<path d="M372.03 340.269L365.946 343.779L381.753 352.906C381.875 352.959 382.006 352.987 382.139 352.988H382.385L388.294 349.571L372.03 340.269Z" fill="#37474F"/>
<path d="M227.33 434.318L233.999 438.168C234.132 438.238 234.281 438.274 234.432 438.273L241.862 434.107L234.631 430.071L227.33 434.318Z" fill="#37474F"/>
<path d="M236.631 428.936L243.301 432.785C243.436 432.862 243.589 432.902 243.745 432.902H243.991L289.693 406.483L282.497 402.434L236.631 428.936Z" fill="#37474F"/>
<path d="M238.456 425.449L244.623 422.021L237.439 417.984L231.354 421.494L238.059 425.356C238.182 425.417 238.318 425.449 238.456 425.449Z" fill="#37474F"/>
<path d="M218.016 439.689L224.685 443.538C224.818 443.612 224.966 443.652 225.118 443.655L232.548 439.49L225.364 435.441L218.016 439.689Z" fill="#37474F"/>
<path d="M284.463 401.323L291.144 405.184C291.275 405.251 291.419 405.287 291.565 405.289H291.823L298.995 401.147L291.811 397.122L284.463 401.323Z" fill="#37474F"/>
<path d="M303.079 390.57L309.783 394.443C309.91 394.508 310.05 394.54 310.193 394.536H310.438L317.622 390.394L310.438 386.346L303.079 390.57Z" fill="#37474F"/>
<path d="M293.765 395.952L300.481 399.825C300.606 399.882 300.742 399.91 300.879 399.907L308.309 395.742L301.125 391.705L293.765 395.952Z" fill="#37474F"/>
<path d="M312.392 385.199L319.073 389.049C319.206 389.122 319.355 389.158 319.506 389.154H319.752L328.621 384.029L321.437 379.993L312.392 385.199Z" fill="#37474F"/>
<path d="M321.015 356.802H321.261L327.182 353.397L320.044 349.326L313.96 352.836L320.664 356.709C320.774 356.764 320.893 356.796 321.015 356.802Z" fill="#37474F"/>
<path d="M331.148 371.943H331.394L337.314 368.526L330.13 364.489L324.046 368L330.739 371.872C330.868 371.928 331.008 371.952 331.148 371.943Z" fill="#37474F"/>
<path d="M302.798 388.312L319.541 378.764L312.345 374.727L295.684 384.345L302.4 388.218C302.522 388.283 302.659 388.315 302.798 388.312Z" fill="#37474F"/>
<path d="M348.921 361.67H349.179L355.088 358.253L347.903 354.216L341.819 357.727L348.524 361.599C348.649 361.653 348.785 361.677 348.921 361.67Z" fill="#37474F"/>
<path d="M356.971 357.036H357.217L363.126 353.631L355.942 349.583L349.857 353.093L356.55 356.966C356.683 357.022 356.827 357.046 356.971 357.036Z" fill="#37474F"/>
<path d="M294.748 392.957L300.914 389.529L293.73 385.48L287.646 388.99L294.326 392.852C294.457 392.919 294.601 392.955 294.748 392.957Z" fill="#37474F"/>
<path d="M339.842 356.428H340.087L345.996 353.011L338.765 348.963L332.681 352.473L339.35 356.311C339.497 356.402 339.669 356.443 339.842 356.428Z" fill="#37474F"/>
<path d="M254.521 416.159L260.688 412.731L253.492 408.694L247.419 412.204L254.124 416.077C254.247 416.137 254.384 416.165 254.521 416.159Z" fill="#37474F"/>
<path d="M286.71 397.59L292.876 394.162L285.68 390.102L279.607 393.612L286.324 397.497C286.445 397.552 286.576 397.583 286.71 397.59Z" fill="#37474F"/>
<path d="M246.507 420.804H246.752L252.603 417.387L245.418 413.351L239.334 416.861L246.05 420.734C246.193 420.8 246.351 420.824 246.507 420.804Z" fill="#37474F"/>
<path d="M262.583 411.526L268.749 408.097L261.542 404.049L255.458 407.559L262.185 411.444C262.309 411.503 262.446 411.531 262.583 411.526Z" fill="#37474F"/>
<path d="M270.633 406.88H270.902L276.811 403.464L269.604 399.462L263.519 402.972L270.2 406.834C270.338 406.887 270.487 406.904 270.633 406.88Z" fill="#37474F"/>
<path d="M278.671 402.235H278.917L284.837 398.819L277.642 394.782L271.557 398.292L278.273 402.165C278.4 402.215 278.535 402.239 278.671 402.235Z" fill="#37474F"/>
<path d="M258.909 369.427L265.052 365.999L257.856 361.95L251.772 365.461L258.453 369.31C258.589 369.396 258.749 369.437 258.909 369.427Z" fill="#37474F"/>
<path d="M365.01 352.391H365.255L371.176 348.986L363.98 344.938L357.896 348.448L364.612 352.333C364.739 352.379 364.874 352.399 365.01 352.391Z" fill="#37474F"/>
<path d="M274.997 360.137L281.152 356.709L273.968 352.66L267.883 356.17L274.553 360.02C274.688 360.097 274.841 360.137 274.997 360.137Z" fill="#37474F"/>
<path d="M292.852 349.829L299.019 346.4L291.823 342.352L285.75 345.862L292.431 349.723C292.56 349.796 292.705 349.832 292.852 349.829Z" fill="#37474F"/>
<path d="M284.814 354.474L290.969 351.046L283.773 346.997L277.688 350.507L284.369 354.368C284.506 354.442 284.659 354.478 284.814 354.474Z" fill="#37474F"/>
<path d="M250.871 374.072L257.037 370.632L249.841 366.596L243.769 370.106L250.45 373.967C250.58 374.034 250.724 374.07 250.871 374.072Z" fill="#37474F"/>
<path d="M266.947 364.782H267.205L273.055 361.365L265.929 357.34L259.845 360.851L266.515 364.7C266.65 364.763 266.799 364.791 266.947 364.782Z" fill="#37474F"/>
<path d="M300.891 345.184L307.057 341.755L299.873 337.719L293.788 341.229L300.469 345.078C300.598 345.151 300.743 345.187 300.891 345.184Z" fill="#37474F"/>
<path d="M332.423 324.286L338.578 320.858L334.67 318.729L328.586 322.239L332.002 324.169C332.132 324.24 332.276 324.28 332.423 324.286Z" fill="#37474F"/>
<path d="M345.786 332.009L351.952 328.58L344.756 324.579L338.672 328.089L345.353 331.95C345.49 332.004 345.639 332.025 345.786 332.009Z" fill="#37474F"/>
<path d="M308.344 338.222H308.59L314.498 334.805L310.59 332.699L304.506 336.209L307.911 338.14C308.048 338.198 308.195 338.226 308.344 338.222Z" fill="#37474F"/>
<path d="M316.335 333.577H316.581L322.431 330.172L318.594 328.089L312.509 331.599L315.938 333.53C316.065 333.575 316.201 333.591 316.335 333.577Z" fill="#37474F"/>
<path d="M324.374 328.932L330.54 325.503L326.632 323.409L320.548 326.919L323.988 328.861C324.11 328.91 324.242 328.934 324.374 328.932Z" fill="#37474F"/>
<g opacity="0.8">
<path d="M333.523 25.9346V199.629C333.456 200.88 333.095 202.098 332.469 203.184C331.843 204.27 330.969 205.192 329.92 205.877L95.8038 341.299C95.4517 341.517 95.048 341.639 94.6337 341.65C94.4821 341.667 94.329 341.667 94.1774 341.65C94.0721 341.627 93.97 341.592 93.8732 341.545L93.6743 341.428L93.4637 341.287C93.3921 341.235 93.3255 341.176 93.2648 341.112C92.982 340.843 92.7553 340.521 92.5978 340.164C92.3482 339.588 92.2207 338.966 92.2234 338.339V165.452C92.2936 164.198 92.6574 162.978 93.2854 161.891C93.9134 160.804 94.788 159.879 95.8389 159.192L329.92 23.8753C330.269 23.6328 330.671 23.4785 331.093 23.4255C331.515 23.3725 331.943 23.4225 332.342 23.5711C332.452 23.6205 332.557 23.6793 332.658 23.7466C332.75 23.8136 332.829 23.8968 332.892 23.9923C332.933 24.0298 332.968 24.0731 332.997 24.121C333.047 24.1761 333.086 24.2394 333.114 24.3082C333.208 24.4484 333.279 24.6024 333.325 24.7646C333.365 24.8699 333.393 24.98 333.406 25.0922C333.412 25.1031 333.414 25.1151 333.414 25.1273C333.414 25.1394 333.412 25.1514 333.406 25.1624C333.438 25.269 333.458 25.3789 333.465 25.49C333.512 25.6187 333.523 25.7708 333.523 25.9346Z" fill="#455A64"/>
<path d="M331.523 24.5305C331.643 24.5311 331.762 24.555 331.874 24.6007H331.944L332.037 24.7294L332.131 24.8581C332.131 24.8581 332.131 24.8581 332.131 24.9166L332.236 25.256C332.235 25.2832 332.235 25.3106 332.236 25.3379C332.236 25.4549 332.236 25.5719 332.236 25.7006V199.629C332.172 200.676 331.866 201.695 331.342 202.604C330.818 203.514 330.091 204.289 329.218 204.871L95.2187 340.293C95.0371 340.41 94.8265 340.475 94.6103 340.48H94.3646H94.2827L94.1306 340.375V340.316C93.9628 340.164 93.8309 339.976 93.7444 339.766C93.5551 339.339 93.4594 338.876 93.4636 338.409V165.452C93.5276 164.403 93.8347 163.383 94.3607 162.473C94.8866 161.564 95.617 160.789 96.4941 160.21L330.493 24.8581C330.805 24.6676 331.158 24.5553 331.523 24.5305ZM331.523 23.3605C330.956 23.3779 330.403 23.5432 329.92 23.8402L95.8037 159.204C94.7544 159.89 93.8807 160.812 93.2528 161.898C92.6248 162.983 92.2602 164.2 92.1883 165.452V338.268C92.1855 338.896 92.313 339.518 92.5627 340.094C92.7201 340.451 92.9468 340.773 93.2296 341.042C93.2903 341.106 93.3569 341.165 93.4285 341.217L93.6391 341.357L93.838 341.474C93.9348 341.522 94.037 341.557 94.1423 341.58C94.2939 341.597 94.447 341.597 94.5986 341.58H94.6571C95.0713 341.568 95.4751 341.447 95.8271 341.229L329.92 205.877C330.969 205.192 331.843 204.27 332.469 203.184C333.095 202.098 333.456 200.88 333.523 199.629V25.9346C333.523 25.7708 333.523 25.6187 333.523 25.4783C333.516 25.3672 333.497 25.2573 333.465 25.1507C333.47 25.1397 333.473 25.1277 333.473 25.1156C333.473 25.1034 333.47 25.0914 333.465 25.0804C333.451 24.9682 333.424 24.8582 333.383 24.7528C333.337 24.5907 333.266 24.4367 333.172 24.2965C333.145 24.2277 333.105 24.1644 333.055 24.1093C333.027 24.0614 332.991 24.018 332.95 23.9806C332.888 23.8851 332.808 23.8019 332.716 23.7349C332.616 23.6675 332.51 23.6088 332.4 23.5594C332.143 23.4409 331.864 23.381 331.581 23.3839L331.523 23.3605Z" fill="#455A64"/>
<g opacity="0.7">
<path d="M333.523 25.9346V199.629C333.456 200.88 333.095 202.098 332.469 203.184C331.843 204.27 330.969 205.192 329.92 205.877L95.8038 341.299C95.4517 341.517 95.048 341.639 94.6337 341.65C94.4821 341.667 94.329 341.667 94.1774 341.65C94.0721 341.627 93.97 341.592 93.8732 341.545L93.6743 341.428L93.4637 341.287C93.3921 341.235 93.3255 341.176 93.2648 341.112C92.982 340.843 92.7553 340.521 92.5978 340.164C92.3482 339.588 92.2207 338.966 92.2234 338.339V165.452C92.2936 164.198 92.6574 162.978 93.2854 161.891C93.9134 160.804 94.788 159.879 95.8389 159.192L329.92 23.8753C330.269 23.6328 330.671 23.4785 331.093 23.4255C331.515 23.3725 331.943 23.4225 332.342 23.5711C332.452 23.6205 332.557 23.6793 332.658 23.7466C332.75 23.8136 332.829 23.8968 332.892 23.9923C332.933 24.0298 332.968 24.0731 332.997 24.121C333.047 24.1761 333.086 24.2394 333.114 24.3082C333.208 24.4484 333.279 24.6024 333.325 24.7646C333.365 24.8699 333.393 24.98 333.406 25.0922C333.412 25.1031 333.414 25.1151 333.414 25.1273C333.414 25.1394 333.412 25.1514 333.406 25.1624C333.438 25.269 333.458 25.3789 333.465 25.49C333.512 25.6187 333.523 25.7708 333.523 25.9346Z" fill="#455A64"/>
</g>
</g>
<path d="M332.342 23.5362C331.944 23.3876 331.515 23.3376 331.094 23.3906C330.672 23.4436 330.269 23.5979 329.92 23.8404L95.8041 159.204C94.7548 159.89 93.881 160.813 93.2531 161.898C92.6252 162.983 92.2606 164.2 92.1886 165.452V177.246L87.5786 174.543V162.843C87.6474 161.593 88.0095 160.378 88.6356 159.294C89.2617 158.211 90.1342 157.29 91.1824 156.606L325.31 21.2429C325.684 20.967 326.127 20.801 326.59 20.7638C327.053 20.7266 327.518 20.8196 327.931 21.0323C328.574 21.4184 331.57 23.1384 332.342 23.5362Z" fill="#FFC100"/>
<path d="M333.523 25.8995C333.523 23.6296 331.897 22.7052 329.92 23.8519L95.792 159.215C94.7438 159.899 93.8713 160.82 93.2452 161.903C92.6191 162.986 92.257 164.202 92.1882 165.452V177.246L333.523 37.7404V25.8995Z" fill="#FFC100"/>
<g opacity="0.4">
<path d="M329.92 23.8753L95.8038 159.215C94.7346 159.888 93.8594 160.827 93.2648 161.942L88.6782 159.297C89.2753 158.218 90.1369 157.308 91.1821 156.653L325.31 21.2427C325.684 20.9686 326.127 20.8029 326.589 20.7637C327.051 20.7245 327.515 20.8133 327.931 21.0204C328.574 21.4182 331.569 23.1265 332.33 23.536C331.932 23.3872 331.503 23.3403 331.082 23.3996C330.661 23.4589 330.261 23.6224 329.92 23.8753Z" fill="white"/>
</g>
<path opacity="0.15" d="M87.5784 174.566V162.866C87.6287 161.59 88.0076 160.349 88.6782 159.262L93.2765 161.895C92.604 162.975 92.2286 164.214 92.1884 165.487V177.281L87.5784 174.566Z" fill="black"/>
<path d="M311.854 39.3317C311.206 39.8469 310.686 40.5043 310.333 41.253C309.98 42.0017 309.804 42.8216 309.818 43.6492C309.818 45.3809 310.731 46.2584 311.854 45.6149C312.502 45.0997 313.023 44.4423 313.376 43.6936C313.729 42.9449 313.905 42.125 313.89 41.2974C313.831 39.5657 312.919 38.6882 311.854 39.3317Z" fill="#455A64"/>
<path d="M319.132 35.0961C318.483 35.6083 317.962 36.2635 317.609 37.0104C317.256 37.7573 317.08 38.5758 317.096 39.4019C317.096 41.1336 318.008 42.0111 319.132 41.3676C319.788 40.8572 320.318 40.2019 320.679 39.4529C321.04 38.704 321.223 37.8816 321.214 37.0501C321.214 35.3184 320.255 34.4058 319.132 35.0961Z" fill="#455A64"/>
<path d="M326.468 30.8956C325.818 31.409 325.296 32.0661 324.943 32.8152C324.59 33.5643 324.415 34.3851 324.432 35.2131C324.432 36.9448 325.345 37.8224 326.468 37.1671C327.118 36.6537 327.64 35.9967 327.993 35.2476C328.347 34.4985 328.521 33.6777 328.504 32.8496C328.504 31.0711 327.591 30.1936 326.468 30.8956Z" fill="#455A64"/>
<path opacity="0.9" d="M93.5106 341.311L93.066 341.053C92.7384 340.854 92.3523 340.644 91.896 340.433L91.2875 340.094L90.3398 339.556C90.0356 339.368 89.7665 339.216 89.5442 339.099C89.3219 338.982 89.1698 338.889 89.0996 338.854C88.86 338.731 88.6488 338.559 88.4794 338.35C88.2814 338.136 88.1194 337.891 87.9997 337.625C87.7178 337.029 87.5738 336.377 87.5785 335.718V174.555L92.1885 177.258V338.28C92.2069 338.906 92.3336 339.523 92.5629 340.105C92.7203 340.462 92.947 340.785 93.2298 341.053C93.2818 341.126 93.3499 341.186 93.4287 341.229L93.5106 341.311Z" fill="#37474F"/>
<path d="M170.453 237.375C170.453 237.375 161.935 231.864 160.835 231.829L136.615 231.068L146.245 236.193V236.614L170.453 237.375Z" fill="#263238"/>
<path d="M128.94 253.978V238.767L170.453 187.156V207.281L146.245 236.146V236.568L170.453 237.328V257.453L128.94 253.978Z" fill="#FAFAFA"/>
<path d="M170.453 187.203L160.835 181.657L119.31 233.268L128.94 238.814L170.453 187.203Z" fill="#455A64"/>
<path d="M119.31 233.268V248.432L128.94 253.978V238.814L119.31 233.268Z" fill="#37474F"/>
<path d="M195.586 247.531L182.715 254.972L214.845 137.207L227.271 130.034L195.586 247.531Z" fill="#FAFAFA"/>
<path d="M227.259 130.034L217.63 124.488L205.204 131.661L214.822 137.207L227.259 130.034Z" fill="#455A64"/>
<path d="M205.204 131.661L214.822 137.207L182.704 254.972L173.074 249.426L205.204 131.661Z" fill="#37474F"/>
<path d="M229.88 191.965L239.498 197.511L263.706 168.377L254.089 162.831L229.88 191.965Z" fill="#263238"/>
<path d="M263.706 168.377L239.498 167.464V147.339L281.012 151.013V166.224L239.498 217.706V197.511L263.706 168.798V168.377Z" fill="#FAFAFA"/>
<path d="M229.88 141.793L239.498 147.339L281.023 151.013L271.394 145.467L229.88 141.793Z" fill="#455A64"/>
<path d="M239.498 147.339V167.464L229.88 161.918V141.793" fill="#37474F"/>
<path d="M229.88 191.965L239.498 197.511V217.636L229.88 212.09V191.965Z" fill="#37474F"/>
<g opacity="0.8">
<path d="M409.121 55.888V229.582C409.053 230.837 408.691 232.057 408.063 233.145C407.434 234.233 406.558 235.157 405.505 235.842L305.712 293.409C305.362 293.633 304.957 293.755 304.541 293.76C304.388 293.758 304.235 293.738 304.085 293.701L303.769 293.596L303.582 293.479L303.371 293.338C303.3 293.286 303.233 293.228 303.172 293.163C302.886 292.898 302.659 292.575 302.506 292.215C302.256 291.639 302.128 291.018 302.131 290.39V117.573C302.199 116.32 302.561 115.101 303.187 114.014C303.813 112.926 304.686 112.001 305.735 111.313L405.459 53.8053C405.808 53.559 406.212 53.4015 406.636 53.3464C407.06 53.2914 407.491 53.3405 407.892 53.4894C408 53.5405 408.102 53.6033 408.196 53.6766C408.285 53.7431 408.364 53.8219 408.43 53.9106C408.472 53.9481 408.507 53.9914 408.536 54.0393C408.585 54.0944 408.625 54.1578 408.653 54.2265C408.752 54.3691 408.827 54.5273 408.875 54.6946C408.916 54.7958 408.944 54.902 408.957 55.0105C408.962 55.0214 408.965 55.0334 408.965 55.0456C408.965 55.0577 408.962 55.0697 408.957 55.0807C408.989 55.1873 409.008 55.2972 409.015 55.4083C409.109 55.5838 409.121 55.7359 409.121 55.888Z" fill="#455A64"/>
<path d="M407.108 54.4839C407.23 54.4817 407.351 54.5099 407.459 54.5658H407.529L407.635 54.6945L407.717 54.8349L407.834 55.1742C407.839 55.2012 407.839 55.2291 407.834 55.2561C407.84 55.373 407.84 55.4902 407.834 55.6071V229.582C407.767 230.631 407.459 231.649 406.933 232.559C406.407 233.468 405.678 234.243 404.803 234.824L305.138 292.402C304.956 292.52 304.746 292.585 304.53 292.59H304.284H304.202L304.05 292.496C303.89 292.34 303.762 292.153 303.676 291.946C303.486 291.519 303.39 291.056 303.395 290.589V117.573C303.459 116.526 303.765 115.507 304.289 114.598C304.813 113.689 305.54 112.913 306.413 112.331L406.207 54.8232C406.512 54.6251 406.862 54.5083 407.225 54.4839M407.225 53.3138C406.658 53.3374 406.106 53.5067 405.622 53.8053L305.828 111.313C304.779 112.001 303.906 112.926 303.28 114.014C302.654 115.101 302.293 116.32 302.225 117.573V290.39C302.222 291.018 302.349 291.639 302.599 292.215C302.752 292.575 302.979 292.898 303.266 293.163C303.327 293.227 303.393 293.286 303.465 293.338L303.676 293.479L303.863 293.596L304.179 293.701C304.328 293.738 304.481 293.757 304.635 293.76C305.05 293.754 305.455 293.632 305.805 293.409L405.458 235.842C406.51 235.156 407.385 234.231 408.013 233.144C408.641 232.056 409.005 230.836 409.074 229.582V55.888C409.074 55.7358 409.074 55.5837 409.074 55.4316C409.067 55.3206 409.047 55.2107 409.015 55.104C409.021 55.0931 409.023 55.0811 409.023 55.0689C409.023 55.0568 409.021 55.0448 409.015 55.0338C409.002 54.9254 408.974 54.8192 408.933 54.7179C408.886 54.5506 408.811 54.3925 408.711 54.2499C408.683 54.1811 408.644 54.1177 408.594 54.0627C408.566 54.0148 408.53 53.9714 408.489 53.934C408.422 53.8453 408.344 53.7665 408.255 53.7C408.161 53.6266 408.059 53.5639 407.951 53.5127C407.69 53.3941 407.406 53.3341 407.12 53.3372L407.225 53.3138Z" fill="#455A64"/>
<g opacity="0.8">
<path d="M409.121 55.888V229.582C409.053 230.837 408.691 232.057 408.063 233.145C407.434 234.233 406.558 235.157 405.505 235.842L305.712 293.409C305.362 293.633 304.957 293.755 304.541 293.76C304.388 293.758 304.235 293.738 304.085 293.701L303.769 293.596L303.582 293.479L303.371 293.338C303.3 293.286 303.233 293.228 303.172 293.163C302.886 292.898 302.659 292.575 302.506 292.215C302.256 291.639 302.128 291.018 302.131 290.39V117.573C302.199 116.32 302.561 115.101 303.187 114.014C303.813 112.926 304.686 112.001 305.735 111.313L405.459 53.8053C405.808 53.559 406.212 53.4015 406.636 53.3464C407.06 53.2914 407.491 53.3405 407.892 53.4894C408 53.5405 408.102 53.6033 408.196 53.6766C408.285 53.7431 408.364 53.8219 408.43 53.9106C408.472 53.9481 408.507 53.9914 408.536 54.0393C408.585 54.0944 408.625 54.1578 408.653 54.2265C408.752 54.3691 408.827 54.5273 408.875 54.6946C408.916 54.7958 408.944 54.902 408.957 55.0105C408.962 55.0214 408.965 55.0334 408.965 55.0456C408.965 55.0577 408.962 55.0697 408.957 55.0807C408.989 55.1873 409.008 55.2972 409.015 55.4083C409.109 55.5838 409.121 55.7359 409.121 55.888Z" fill="#455A64"/>
</g>
</g>
<path d="M407.939 53.4893C407.538 53.3404 407.107 53.2913 406.683 53.3464C406.259 53.4014 405.855 53.5589 405.505 53.8053L305.711 111.313C304.662 112.001 303.789 112.926 303.163 114.014C302.537 115.101 302.176 116.32 302.108 117.573V129.367L297.498 126.664V114.964C297.566 113.714 297.928 112.499 298.555 111.415C299.181 110.332 300.053 109.411 301.101 108.728L400.907 51.2077C401.281 50.9378 401.722 50.7754 402.182 50.7383C402.642 50.7012 403.103 50.7907 403.516 50.9971C404.171 51.3715 407.167 53.1266 407.939 53.4893Z" fill="#FFC100"/>
<path d="M409.109 55.8646C409.109 53.5245 407.494 52.6586 405.505 53.8053L305.711 111.325C304.662 112.01 303.788 112.932 303.162 114.018C302.536 115.104 302.175 116.322 302.108 117.573V129.367L409.109 67.7055V55.8646Z" fill="#FFC100"/>
<g opacity="0.4">
<path d="M405.458 53.8052L305.676 111.325C304.614 111.984 303.736 112.902 303.126 113.993L298.551 111.348C299.145 110.27 300.007 109.363 301.055 108.716L400.895 51.196C401.271 50.925 401.714 50.7621 402.176 50.725C402.638 50.6879 403.102 50.7779 403.516 50.9854C404.171 51.3832 407.155 53.0798 407.916 53.4893C407.512 53.3321 407.076 53.2787 406.647 53.3339C406.217 53.3891 405.809 53.5511 405.458 53.8052Z" fill="white"/>
</g>
<path opacity="0.15" d="M297.498 126.676V114.976C297.549 113.7 297.928 112.459 298.597 111.372L303.184 114.004C302.52 115.088 302.149 116.326 302.108 117.597V129.391L297.498 126.676Z" fill="black"/>
<path d="M387.381 69.2967C386.733 69.8089 386.212 70.4641 385.858 71.211C385.505 71.958 385.33 72.7764 385.345 73.6025C385.345 75.3342 386.258 76.2117 387.381 75.5682C388.029 75.053 388.55 74.3956 388.903 73.6469C389.256 72.8982 389.432 72.0783 389.417 71.2507C389.417 69.5073 388.504 68.6415 387.381 69.2967Z" fill="#455A64"/>
<path d="M394.717 65.0495C394.069 65.5641 393.548 66.2213 393.195 66.9702C392.841 67.719 392.666 68.5392 392.681 69.367C392.681 71.0986 393.594 71.9762 394.717 71.3209C395.369 70.8094 395.893 70.1527 396.246 69.4032C396.6 68.6536 396.773 67.8319 396.753 67.0035C396.753 65.2718 395.852 64.3942 394.717 65.0495Z" fill="#455A64"/>
<path d="M402.053 60.8021C401.405 61.3173 400.885 61.9747 400.532 62.7234C400.179 63.4721 400.003 64.292 400.017 65.1196C400.017 66.8513 400.93 67.7289 402.053 67.0736C402.705 66.5639 403.229 65.9095 403.585 65.1622C403.94 64.4149 404.117 63.5952 404.101 62.7678C404.101 61.0362 403.188 60.1469 402.053 60.8021Z" fill="#455A64"/>
<path opacity="0.9" d="M303.43 293.42L302.985 293.163L301.874 292.543L301.265 292.192L300.317 291.654C300.013 291.466 299.732 291.314 299.522 291.197C299.311 291.08 299.147 290.987 299.077 290.952C298.838 290.829 298.626 290.657 298.457 290.448C298.259 290.234 298.097 289.989 297.977 289.723C297.695 289.127 297.551 288.475 297.556 287.816V126.664L302.166 129.367V290.39C302.184 291.015 302.311 291.633 302.54 292.215C302.694 292.575 302.921 292.897 303.207 293.163C303.259 293.236 303.327 293.296 303.406 293.338C303.41 293.367 303.418 293.394 303.43 293.42Z" fill="#37474F"/>
<path d="M310.965 139.161C310.975 138.927 311.039 138.699 311.152 138.494L313.75 133.123C313.773 133.062 313.814 133.009 313.867 132.971V132.913C313.897 132.89 313.934 132.877 313.972 132.877C314.01 132.877 314.047 132.89 314.077 132.913C314.108 132.947 314.132 132.988 314.146 133.032C314.16 133.077 314.165 133.124 314.159 133.17V135.03C314.181 135.217 314.181 135.405 314.159 135.592C314.11 135.76 314.047 135.925 313.972 136.083L312.603 138.915L313.972 140.179C314.052 140.255 314.116 140.346 314.159 140.448C314.183 140.615 314.183 140.784 314.159 140.951V142.753C314.16 142.878 314.132 143.002 314.077 143.115C314.033 143.216 313.959 143.302 313.867 143.361C313.848 143.37 313.828 143.374 313.808 143.374C313.788 143.374 313.768 143.37 313.75 143.361L311.152 141.021C311.088 140.965 311.037 140.894 311.005 140.815C310.972 140.736 310.958 140.65 310.965 140.565V139.161Z" fill="#FFC100"/>
<path d="M320.454 125.67C320.5 125.487 320.566 125.311 320.653 125.143C320.733 124.968 320.869 124.824 321.039 124.734L322.01 124.172C322.023 124.159 322.039 124.149 322.056 124.142C322.073 124.135 322.091 124.131 322.11 124.131C322.128 124.131 322.146 124.135 322.163 124.142C322.18 124.149 322.196 124.159 322.209 124.172C322.242 124.206 322.268 124.246 322.284 124.291C322.3 124.335 322.307 124.383 322.303 124.43C322.313 124.496 322.313 124.563 322.303 124.629L317.856 143.583C317.816 143.762 317.754 143.935 317.669 144.098C317.59 144.28 317.455 144.432 317.283 144.531L316.347 145.069C316.319 145.093 316.284 145.106 316.248 145.106C316.211 145.106 316.176 145.093 316.148 145.069C316.083 144.995 316.049 144.899 316.055 144.8C316.05 144.734 316.05 144.668 316.055 144.601L320.454 125.67Z" fill="#FFC100"/>
<path d="M327.334 131.052C327.329 131.285 327.269 131.514 327.158 131.719L324.561 137.09C324.529 137.149 324.49 137.204 324.444 137.253H324.374C324.345 137.275 324.31 137.287 324.274 137.287C324.238 137.287 324.203 137.275 324.175 137.253C324.113 137.178 324.084 137.081 324.093 136.984V135.182C324.071 134.996 324.071 134.807 324.093 134.621C324.137 134.451 324.2 134.286 324.28 134.129L325.649 131.298L324.28 130.046C324.198 129.967 324.134 129.871 324.093 129.765C324.069 129.598 324.069 129.429 324.093 129.262V127.46C324.093 127.335 324.121 127.211 324.175 127.097C324.219 127 324.287 126.915 324.374 126.852H324.444C324.444 126.852 324.514 126.852 324.561 126.852L327.158 129.192C327.222 129.251 327.271 129.324 327.301 129.405C327.331 129.486 327.343 129.573 327.334 129.66V131.052Z" fill="#FFC100"/>
<path d="M334.541 129.8C334.578 129.772 334.623 129.756 334.67 129.756C334.717 129.756 334.762 129.772 334.799 129.8C334.837 129.845 334.866 129.897 334.884 129.953C334.902 130.01 334.909 130.069 334.904 130.128V132.105C334.904 132.26 334.868 132.412 334.799 132.55C334.749 132.68 334.659 132.79 334.541 132.866L333.371 133.568C333.338 133.6 333.294 133.618 333.248 133.618C333.202 133.618 333.158 133.6 333.126 133.568C333.086 133.526 333.056 133.476 333.038 133.421C333.02 133.367 333.014 133.309 333.02 133.252V131.263C333.022 131.109 333.058 130.957 333.126 130.818C333.175 130.694 333.261 130.588 333.371 130.514L334.541 129.8Z" fill="#FFC100"/>
<path d="M338.637 127.448C338.672 127.418 338.718 127.401 338.765 127.401C338.812 127.401 338.858 127.418 338.894 127.448C338.932 127.493 338.961 127.545 338.98 127.602C338.998 127.658 339.004 127.717 338.999 127.776V129.753C338.999 129.908 338.963 130.06 338.894 130.198C338.844 130.328 338.754 130.439 338.637 130.514L337.466 131.216C337.43 131.244 337.384 131.26 337.338 131.26C337.291 131.26 337.246 131.244 337.209 131.216C337.171 131.171 337.141 131.119 337.123 131.063C337.105 131.006 337.099 130.947 337.104 130.888V128.899C337.107 128.745 337.143 128.594 337.209 128.455C337.259 128.328 337.35 128.221 337.466 128.15L338.637 127.448Z" fill="#FFC100"/>
<path d="M342.732 125.085C342.765 125.053 342.809 125.035 342.855 125.035C342.901 125.035 342.945 125.053 342.978 125.085C343.016 125.13 343.045 125.182 343.063 125.238C343.081 125.294 343.088 125.354 343.083 125.412V127.39C343.082 127.548 343.046 127.704 342.978 127.846C342.925 127.968 342.84 128.073 342.732 128.15L341.503 128.852C341.469 128.882 341.426 128.898 341.38 128.898C341.335 128.898 341.292 128.882 341.258 128.852C341.219 128.808 341.19 128.755 341.172 128.699C341.154 128.643 341.147 128.584 341.152 128.525V126.536C341.155 126.382 341.191 126.23 341.258 126.091C341.311 125.969 341.395 125.864 341.503 125.787L342.732 125.085Z" fill="#FFC100"/>
<path d="M312.065 153.634L372.018 119.024C372.732 118.614 373.305 118.907 373.305 119.668C373.274 120.099 373.141 120.517 372.918 120.887C372.694 121.257 372.386 121.569 372.018 121.797L312.065 156.419C311.351 156.828 310.778 156.536 310.778 155.764C310.81 155.333 310.943 154.915 311.166 154.545C311.39 154.175 311.698 153.863 312.065 153.634Z" fill="#FFC100"/>
<path d="M331.3 175.853L391.254 141.232C391.967 140.822 392.541 141.115 392.541 141.887C392.509 142.318 392.376 142.736 392.152 143.106C391.928 143.476 391.621 143.788 391.254 144.016L331.3 178.626C330.587 179.036 330.013 178.744 330.013 177.983C330.044 177.552 330.177 177.134 330.401 176.764C330.625 176.393 330.933 176.082 331.3 175.853Z" fill="#E0E0E0"/>
<path d="M331.3 186.957L360.002 170.401C360.704 169.991 361.277 170.284 361.277 171.056C361.246 171.485 361.115 171.9 360.893 172.268C360.672 172.636 360.366 172.946 360.002 173.174L331.3 189.742C330.587 190.14 330.013 189.859 330.013 189.087C330.045 188.656 330.178 188.238 330.402 187.868C330.626 187.498 330.933 187.186 331.3 186.957Z" fill="#E0E0E0"/>
<path d="M331.3 198.061L360.002 181.505C360.704 181.107 361.277 181.388 361.277 182.16C361.244 182.59 361.112 183.006 360.891 183.375C360.67 183.745 360.365 184.058 360.002 184.29L331.3 200.846C330.587 201.255 330.013 200.963 330.013 200.191C330.045 199.759 330.178 199.342 330.402 198.972C330.626 198.602 330.933 198.29 331.3 198.061Z" fill="#E0E0E0"/>
<path d="M376.991 116.157L400.872 102.269C401.586 101.859 402.159 102.152 402.159 102.912C402.128 103.344 401.995 103.762 401.771 104.132C401.548 104.502 401.239 104.814 400.872 105.042L376.991 118.884C376.277 119.293 375.704 119.001 375.704 118.24C375.742 117.817 375.878 117.408 376.102 117.047C376.325 116.685 376.63 116.381 376.991 116.157Z" fill="#FFC100"/>
<path d="M312.065 275.799L372.018 241.189C372.732 240.78 373.305 241.072 373.305 241.833C373.274 242.264 373.141 242.682 372.918 243.052C372.694 243.422 372.386 243.734 372.018 243.962L312.065 278.584C311.351 278.982 310.778 278.701 310.778 277.929C310.81 277.498 310.943 277.08 311.166 276.71C311.39 276.34 311.698 276.028 312.065 275.799Z" fill="#FFC100"/>
<path d="M376.991 238.311L400.872 224.469C401.586 224.06 402.159 224.352 402.159 225.124C402.127 225.556 401.994 225.973 401.77 226.343C401.546 226.713 401.239 227.025 400.872 227.254L376.991 241.096C376.277 241.505 375.704 241.213 375.704 240.44C375.736 240.009 375.869 239.592 376.093 239.222C376.317 238.852 376.624 238.54 376.991 238.311Z" fill="#FFC100"/>
<path d="M376.991 205.058L400.872 191.193C401.586 190.783 402.159 191.076 402.159 191.836C402.128 192.268 401.995 192.686 401.771 193.056C401.548 193.426 401.239 193.738 400.872 193.966L376.991 207.808C376.277 208.217 375.704 207.925 375.704 207.164C375.739 206.737 375.873 206.324 376.097 205.958C376.32 205.592 376.627 205.284 376.991 205.058Z" fill="#FFC100"/>
<path d="M376.991 216.162L400.872 202.32C401.586 201.911 402.159 202.203 402.159 202.964C402.128 203.395 401.995 203.813 401.771 204.183C401.548 204.553 401.239 204.865 400.872 205.093L376.991 218.935C376.277 219.344 375.704 219.052 375.704 218.291C375.735 217.86 375.868 217.442 376.092 217.072C376.315 216.702 376.624 216.39 376.991 216.162Z" fill="#FFC100"/>
<path d="M312.065 264.707L372.018 230.085C372.732 229.688 373.305 229.968 373.305 230.741C373.273 231.172 373.14 231.589 372.916 231.959C372.693 232.329 372.385 232.641 372.018 232.87L312.065 267.48C311.351 267.89 310.778 267.597 310.778 266.837C310.809 266.405 310.942 265.988 311.165 265.617C311.389 265.247 311.697 264.935 312.065 264.707Z" fill="#F5F5F5"/>
<path d="M356.62 216.782L370.041 209.036C370.743 208.627 371.316 208.919 371.316 209.68C371.285 210.11 371.154 210.527 370.932 210.897C370.711 211.266 370.405 211.579 370.041 211.809L356.62 219.555C355.907 219.964 355.333 219.684 355.333 218.911C355.364 218.48 355.497 218.062 355.721 217.692C355.945 217.322 356.253 217.01 356.62 216.782Z" fill="#FFC100"/>
<path d="M312.065 164.773L347.038 144.566C347.74 144.157 348.313 144.449 348.313 145.21C348.282 145.64 348.151 146.057 347.929 146.427C347.708 146.797 347.402 147.109 347.038 147.339L312.065 167.546C311.351 167.956 310.778 167.663 310.778 166.903C310.809 166.471 310.942 166.053 311.165 165.683C311.389 165.313 311.697 165.001 312.065 164.773Z" fill="#FFC100"/>
<path opacity="0.6" d="M312.065 164.773L347.038 144.566C347.74 144.157 348.313 144.449 348.313 145.21C348.282 145.64 348.151 146.057 347.929 146.427C347.708 146.797 347.402 147.109 347.038 147.339L312.065 167.546C311.351 167.956 310.778 167.663 310.778 166.903C310.809 166.471 310.942 166.053 311.165 165.683C311.389 165.313 311.697 165.001 312.065 164.773Z" fill="white"/>
<path d="M312.065 175.853L323.929 168.962C324.631 168.552 325.204 168.845 325.204 169.617C325.172 170.047 325.04 170.463 324.818 170.832C324.597 171.202 324.292 171.515 323.929 171.747L312.065 178.603C311.351 179.013 310.778 178.72 310.778 177.948C310.815 177.523 310.951 177.112 311.174 176.749C311.397 176.385 311.702 176.079 312.065 175.853Z" fill="#FFC100"/>
<path opacity="0.6" d="M312.065 175.853L323.929 168.962C324.631 168.552 325.204 168.845 325.204 169.617C325.172 170.047 325.04 170.463 324.818 170.832C324.597 171.202 324.292 171.515 323.929 171.747L312.065 178.603C311.351 179.013 310.778 178.72 310.778 177.948C310.815 177.523 310.951 177.112 311.174 176.749C311.397 176.385 311.702 176.079 312.065 175.853Z" fill="white"/>
<path d="M312.065 186.969L323.929 180.101C324.631 179.691 325.204 179.984 325.204 180.756C325.172 181.186 325.04 181.602 324.818 181.971C324.597 182.341 324.292 182.654 323.929 182.885L312.065 189.742C311.351 190.151 310.778 189.859 310.778 189.087C310.809 188.657 310.942 188.241 311.165 187.872C311.389 187.504 311.697 187.194 312.065 186.969Z" fill="#FFC100"/>
<path opacity="0.6" d="M312.065 186.969L323.929 180.101C324.631 179.691 325.204 179.984 325.204 180.756C325.172 181.186 325.04 181.602 324.818 181.971C324.597 182.341 324.292 182.654 323.929 182.885L312.065 189.742C311.351 190.151 310.778 189.859 310.778 189.087C310.809 188.657 310.942 188.241 311.165 187.872C311.389 187.504 311.697 187.194 312.065 186.969Z" fill="white"/>
<path d="M312.065 198.073L323.929 191.193C324.631 190.783 325.204 191.064 325.204 191.836C325.174 192.266 325.042 192.683 324.821 193.053C324.599 193.423 324.294 193.736 323.929 193.966L312.065 200.822C311.351 201.232 310.778 200.939 310.778 200.179C310.812 199.752 310.947 199.338 311.17 198.973C311.394 198.607 311.7 198.299 312.065 198.073Z" fill="#FFC100"/>
<path opacity="0.6" d="M312.065 198.073L323.929 191.193C324.631 190.783 325.204 191.064 325.204 191.836C325.174 192.266 325.042 192.683 324.821 193.053C324.599 193.423 324.294 193.736 323.929 193.966L312.065 200.822C311.351 201.232 310.778 200.939 310.778 200.179C310.812 199.752 310.947 199.338 311.17 198.973C311.394 198.607 311.7 198.299 312.065 198.073Z" fill="white"/>
<path d="M312.065 209.177L323.929 202.32C324.631 201.911 325.204 202.203 325.204 202.964C325.174 203.394 325.042 203.81 324.821 204.18C324.599 204.55 324.294 204.863 323.929 205.093L312.065 211.95C311.351 212.359 310.778 212.067 310.778 211.306C310.809 210.875 310.942 210.457 311.165 210.087C311.389 209.716 311.697 209.405 312.065 209.177Z" fill="#FFC100"/>
<path opacity="0.6" d="M312.065 209.177L323.929 202.32C324.631 201.911 325.204 202.203 325.204 202.964C325.174 203.394 325.042 203.81 324.821 204.18C324.599 204.55 324.294 204.863 323.929 205.093L312.065 211.95C311.351 212.359 310.778 212.067 310.778 211.306C310.809 210.875 310.942 210.457 311.165 210.087C311.389 209.716 311.697 209.405 312.065 209.177Z" fill="white"/>
<path d="M351.998 141.7L367.209 132.948C367.911 132.538 368.496 132.831 368.496 133.591C368.463 134.022 368.33 134.439 368.106 134.809C367.883 135.179 367.575 135.491 367.209 135.721L351.998 144.473C351.296 144.882 350.723 144.59 350.723 143.829C350.754 143.399 350.885 142.982 351.107 142.612C351.328 142.242 351.634 141.93 351.998 141.7Z" fill="#FFC100"/>
<path opacity="0.6" d="M351.998 141.7L367.209 132.948C367.911 132.538 368.496 132.831 368.496 133.591C368.463 134.022 368.33 134.439 368.106 134.809C367.883 135.179 367.575 135.491 367.209 135.721L351.998 144.473C351.296 144.882 350.723 144.59 350.723 143.829C350.754 143.399 350.885 142.982 351.107 142.612C351.328 142.242 351.634 141.93 351.998 141.7Z" fill="white"/>
<path d="M345.786 200.822L380.7 180.662C381.402 180.253 381.975 180.545 381.975 181.318C381.943 181.747 381.811 182.163 381.589 182.533C381.368 182.903 381.063 183.216 380.7 183.447L345.786 203.607C345.084 204.017 344.499 203.724 344.499 202.952C344.531 202.521 344.664 202.103 344.887 201.733C345.111 201.363 345.419 201.051 345.786 200.822Z" fill="#F5F5F5"/>
<path d="M365.899 200.331L400.872 180.124C401.585 179.715 402.159 180.007 402.159 180.768C402.128 181.199 401.995 181.617 401.771 181.987C401.547 182.357 401.239 182.669 400.872 182.897L365.899 203.104C365.197 203.513 364.624 203.221 364.624 202.46C364.654 202.03 364.786 201.613 365.007 201.244C365.229 200.874 365.534 200.561 365.899 200.331Z" fill="#F5F5F5"/>
<path d="M385.673 177.749L400.883 168.997C401.597 168.587 402.171 168.88 402.171 169.652C402.139 170.083 402.005 170.501 401.782 170.871C401.558 171.241 401.25 171.553 400.883 171.782L385.673 180.534C384.959 180.931 384.386 180.651 384.386 179.878C384.418 179.447 384.551 179.03 384.775 178.66C384.998 178.29 385.306 177.978 385.673 177.749Z" fill="#F5F5F5"/>
<path d="M331.3 164.75L366.273 144.543C366.975 144.133 367.548 144.426 367.548 145.198C367.516 145.628 367.384 146.044 367.162 146.414C366.941 146.783 366.637 147.096 366.273 147.328L331.3 167.523C330.587 167.932 330.013 167.651 330.013 166.879C330.045 166.448 330.178 166.03 330.402 165.66C330.626 165.29 330.933 164.978 331.3 164.75Z" fill="#FFC100"/>
<path opacity="0.6" d="M331.3 164.75L366.273 144.543C366.975 144.133 367.548 144.426 367.548 145.198C367.516 145.628 367.384 146.044 367.162 146.414C366.941 146.783 366.637 147.096 366.273 147.328L331.3 167.523C330.587 167.932 330.013 167.651 330.013 166.879C330.045 166.448 330.178 166.03 330.402 165.66C330.626 165.29 330.933 164.978 331.3 164.75Z" fill="white"/>
<path d="M371.234 141.676L386.445 132.924C387.159 132.515 387.732 132.807 387.732 133.568C387.701 133.999 387.568 134.417 387.344 134.787C387.121 135.157 386.813 135.469 386.445 135.697L371.234 144.449C370.532 144.859 369.959 144.566 369.959 143.806C369.99 143.376 370.121 142.959 370.343 142.589C370.564 142.219 370.87 141.906 371.234 141.676Z" fill="#FFC100"/>
<path opacity="0.6" d="M371.234 141.676L386.445 132.924C387.159 132.515 387.732 132.807 387.732 133.568C387.701 133.999 387.568 134.417 387.344 134.787C387.121 135.157 386.813 135.469 386.445 135.697L371.234 144.449C370.532 144.859 369.959 144.566 369.959 143.806C369.99 143.376 370.121 142.959 370.343 142.589C370.564 142.219 370.87 141.906 371.234 141.676Z" fill="white"/>
<path d="M482.927 64.1602V50.7865L471.683 49.8154C471.521 49.7899 471.355 49.8231 471.215 49.909C470.771 50.143 460.123 56.239 459.994 56.3209C459.889 56.3828 459.798 56.4677 459.729 56.5692C459.661 56.6708 459.616 56.7865 459.598 56.9078C459.58 57.0291 459.589 57.1529 459.625 57.27C459.662 57.3871 459.724 57.4946 459.807 57.5845L471.73 70.5136L482.927 64.1602Z" fill="#FFC100"/>
<path d="M471.73 70.5604L459.807 57.6314C459.697 57.508 459.627 57.3547 459.605 57.1912C459.583 57.0276 459.61 56.8611 459.682 56.713C459.755 56.5648 459.87 56.4417 460.014 56.3594C460.157 56.2771 460.321 56.2392 460.486 56.2507L471.73 57.2335V70.5604Z" fill="#FFC100"/>
<path d="M482.916 50.7866L471.73 57.1985L460.451 56.2507C460.319 56.2263 460.184 56.2263 460.053 56.2507C460.954 55.7242 470.771 50.1079 471.168 49.8973C471.313 49.8133 471.482 49.7804 471.648 49.8037L482.916 50.7866Z" fill="#FFC100"/>
<path opacity="0.5" d="M482.916 50.7866L471.73 57.1985L460.451 56.2507C460.319 56.2263 460.184 56.2263 460.053 56.2507C460.954 55.7242 470.771 50.1079 471.168 49.8973C471.313 49.8133 471.482 49.7804 471.648 49.8037L482.916 50.7866Z" fill="white"/>
<path d="M471.753 42.21C471.832 40.8048 472.239 39.4376 472.942 38.2183C473.645 36.999 474.625 35.9617 475.802 35.1897L479.101 33.2357C480.357 32.5957 481.746 32.2621 483.155 32.2621C484.565 32.2621 485.954 32.5957 487.21 33.2357L522.393 53.5947C523.575 54.3619 524.559 55.3978 525.265 56.6179C525.971 57.838 526.378 59.2076 526.453 60.615V101.263C526.377 102.67 525.969 104.039 525.264 105.259C524.558 106.479 523.575 107.515 522.393 108.283L519.093 110.19C517.836 110.825 516.448 111.155 515.039 111.155C513.631 111.155 512.242 110.825 510.985 110.19L500.607 104.188L487.104 96.4186L475.802 89.8897C474.622 89.1204 473.641 88.0838 472.937 86.8639C472.234 85.6441 471.828 84.2755 471.753 82.8694V42.21Z" fill="#FFC100"/>
<path opacity="0.2" d="M526.454 101.263C526.377 102.67 525.97 104.039 525.264 105.259C524.559 106.479 523.575 107.515 522.393 108.283L519.094 110.19C517.95 110.764 516.698 111.089 515.42 111.146C514.142 111.202 512.866 110.988 511.676 110.518C513.595 111.231 515.046 110.155 515.046 107.85V67.1673C515.004 65.7554 514.601 64.3778 513.875 63.1657L525.26 56.6368C525.985 57.8489 526.388 59.2265 526.43 60.6384L526.454 101.263Z" fill="black"/>
<path opacity="0.5" d="M471.882 41.0517C472.362 39.3317 473.93 38.7818 475.802 39.8816L510.997 60.1469C512.196 60.8918 513.18 61.9363 513.852 63.1774L525.248 56.6368C524.576 55.399 523.592 54.3584 522.393 53.618L487.221 33.2357C485.972 32.6107 484.594 32.2853 483.197 32.2853C481.799 32.2853 480.421 32.6107 479.172 33.2357L475.86 35.1429C474.829 35.8041 473.944 36.6695 473.26 37.6857C472.576 38.7019 472.107 39.8474 471.882 41.0517Z" fill="white"/>
<path d="M493.399 57.0463L480.002 55.1742L481.874 79.8974L493.399 94.8624V57.0463Z" fill="#455A64"/>
<path d="M493.399 57.0463L506.796 70.654L504.913 93.201L493.399 94.8624V57.0463Z" fill="#37474F"/>
<path d="M498.911 89.2111L501.988 90.9895L493.423 60.8139L484.87 81.1026L487.935 82.8811L489.784 78.4817L497.062 82.6822L498.911 89.2111ZM490.872 75.8257L493.4 69.8116L495.927 78.7508L490.872 75.8257Z" fill="#FAFAFA"/>
<path d="M482.927 140.026V126.711L471.683 125.728C471.522 125.715 471.359 125.748 471.215 125.822C470.771 126.056 460.123 132.152 459.994 132.234C459.888 132.297 459.798 132.383 459.729 132.486C459.66 132.588 459.615 132.705 459.597 132.827C459.58 132.949 459.589 133.074 459.625 133.192C459.662 133.31 459.724 133.418 459.807 133.509L471.73 146.38L482.927 140.026Z" fill="#FFC100"/>
<path d="M471.73 146.427L459.807 133.556C459.691 133.435 459.615 133.281 459.589 133.115C459.564 132.949 459.59 132.779 459.664 132.629C459.738 132.478 459.856 132.354 460.003 132.273C460.15 132.192 460.319 132.158 460.486 132.175L471.73 133.158V146.427Z" fill="#EBEBEB"/>
<path d="M482.916 126.7L471.73 133.111L460.486 132.129C460.355 132.099 460.219 132.099 460.088 132.129C460.989 131.59 470.806 125.986 471.203 125.764C471.35 125.685 471.517 125.652 471.683 125.67L482.916 126.7Z" fill="#FFC100"/>
<path d="M482.916 126.7L471.73 133.111L460.486 132.129C460.355 132.099 460.219 132.099 460.088 132.129C460.989 131.59 470.806 125.986 471.203 125.764C471.35 125.685 471.517 125.652 471.683 125.67L482.916 126.7Z" fill="#F5F5F5"/>
<path d="M471.753 118.076C471.828 116.67 472.234 115.302 472.937 114.082C473.641 112.862 474.622 111.825 475.802 111.056L479.101 109.149C480.357 108.509 481.746 108.175 483.155 108.175C484.565 108.175 485.954 108.509 487.21 109.149L522.393 129.461C523.575 130.229 524.558 131.265 525.264 132.485C525.969 133.705 526.377 135.074 526.453 136.481V177.152C526.378 178.56 525.971 179.929 525.265 181.149C524.559 182.369 523.575 183.405 522.393 184.173L519.093 186.08C517.838 186.72 516.449 187.053 515.039 187.053C513.63 187.053 512.241 186.72 510.985 186.08L500.607 180.089L487.104 172.285L475.802 165.768C474.623 164.997 473.643 163.96 472.94 162.74C472.237 161.521 471.83 160.153 471.753 158.747V118.076Z" fill="#EBEBEB"/>
<path d="M526.454 177.152C526.378 178.56 525.971 179.929 525.265 181.149C524.56 182.369 523.576 183.405 522.393 184.173L519.094 186.08C517.951 186.656 516.699 186.983 515.42 187.04C514.141 187.096 512.865 186.881 511.676 186.407C513.595 187.133 515.046 186.056 515.046 183.74V143.069C515.005 141.66 514.602 140.286 513.875 139.079L525.284 132.491C526.01 133.699 526.413 135.073 526.454 136.481V177.152Z" fill="#E0E0E0"/>
<path d="M471.882 116.918C472.362 115.198 473.93 114.648 475.802 115.748L510.997 136.06C512.196 136.805 513.18 137.849 513.852 139.09L525.248 132.515C524.576 131.274 523.592 130.229 522.393 129.484L487.221 109.16C485.964 108.526 484.576 108.195 483.167 108.195C481.759 108.195 480.37 108.526 479.113 109.16L475.802 111.068C474.788 111.728 473.918 112.587 473.244 113.592C472.571 114.598 472.107 115.729 471.882 116.918Z" fill="#F5F5F5"/>
<path d="M493.399 142.928L496.348 137.359L506.796 143.396L493.399 168.587L480.002 127.916L490.439 133.942L493.399 142.928Z" fill="#FFC100"/>
<path opacity="0.15" d="M493.399 142.928L496.348 137.359L506.796 143.396L493.399 168.587L480.002 127.916L490.439 133.942L493.399 142.928Z" fill="black"/>
<path d="M493.399 142.928L490.439 133.954L485.759 131.263C489.492 142.601 493.376 154.371 493.376 154.371L500.981 140.05L496.301 137.359L493.399 142.928Z" fill="#37474F"/>
<path d="M482.927 215.904V202.578L471.683 201.595C471.522 201.581 471.359 201.614 471.215 201.688L459.994 208.1C459.888 208.163 459.798 208.249 459.729 208.352C459.66 208.455 459.615 208.571 459.597 208.693C459.58 208.815 459.589 208.94 459.625 209.058C459.662 209.176 459.724 209.285 459.807 209.376L471.73 222.246L482.927 215.904Z" fill="#FFC100"/>
<path d="M471.73 222.293L459.807 209.422C459.691 209.301 459.615 209.147 459.589 208.981C459.564 208.815 459.59 208.645 459.664 208.495C459.738 208.344 459.856 208.22 460.003 208.139C460.15 208.058 460.319 208.024 460.486 208.042L471.73 209.024V222.293Z" fill="#37474F"/>
<path d="M482.916 202.577L471.73 208.978L460.486 207.995C460.355 207.965 460.219 207.965 460.088 207.995L471.203 201.63C471.352 201.556 471.518 201.524 471.683 201.536L482.916 202.577Z" fill="#FFC100"/>
<path d="M482.916 202.577L471.73 208.978L460.486 207.995C460.355 207.965 460.219 207.965 460.088 207.995L471.203 201.63C471.352 201.556 471.518 201.524 471.683 201.536L482.916 202.577Z" fill="#455A64"/>
<path d="M471.753 193.943C471.83 192.537 472.237 191.169 472.94 189.949C473.643 188.73 474.623 187.693 475.802 186.922L479.101 185.015C480.358 184.38 481.747 184.05 483.155 184.05C484.564 184.05 485.952 184.38 487.21 185.015L522.393 205.327C523.573 206.096 524.556 207.133 525.261 208.353C525.967 209.572 526.375 210.941 526.453 212.347V252.983C526.378 254.391 525.971 255.76 525.265 256.98C524.559 258.2 523.575 259.236 522.393 260.004L519.093 261.911C517.838 262.551 516.449 262.885 515.039 262.885C513.63 262.885 512.241 262.551 510.985 261.911L500.607 255.92L487.104 248.116L475.802 241.599C474.622 240.83 473.641 239.793 472.937 238.573C472.234 237.353 471.828 235.985 471.753 234.578V193.943Z" fill="#37474F"/>
<path d="M526.454 252.995C526.378 254.402 525.971 255.772 525.265 256.992C524.56 258.212 523.576 259.248 522.393 260.015L519.094 261.923C517.951 262.499 516.699 262.826 515.42 262.883C514.141 262.939 512.865 262.724 511.676 262.25C513.595 262.976 515.046 261.899 515.046 259.582V218.946C515.004 217.535 514.601 216.157 513.875 214.945L525.284 208.358C526.009 209.57 526.412 210.947 526.454 212.359V252.995Z" fill="#263238"/>
<path d="M471.882 192.796C472.362 191.076 473.93 190.526 475.802 191.626L510.997 211.95C512.195 212.69 513.179 213.731 513.852 214.968L525.248 208.393C524.576 207.152 523.592 206.107 522.393 205.362L487.221 185.038C485.964 184.404 484.576 184.073 483.167 184.073C481.759 184.073 480.37 184.404 479.113 185.038L475.802 186.957C474.788 187.615 473.917 188.471 473.244 189.475C472.57 190.478 472.107 191.608 471.882 192.796Z" fill="#455A64"/>
<path d="M501.227 224.996C502.058 220.783 501.718 216.911 500.057 214.711C499.701 214.195 499.226 213.772 498.672 213.479C498.118 213.185 497.501 213.03 496.874 213.026H496.582C495.463 213.135 494.393 213.539 493.481 214.196C491.141 209.773 488.801 207.059 487.128 207.059H486.882C486.658 207.102 486.446 207.196 486.263 207.334C486.081 207.472 485.932 207.65 485.829 207.854C485.022 209.2 484.975 212.113 485.583 215.939C484.132 215.532 482.585 215.644 481.207 216.255C480.767 216.513 480.406 216.888 480.167 217.338C479.927 217.789 479.817 218.297 479.85 218.806C479.85 221.345 482.085 224.832 485.56 228.167C484.729 232.379 485.069 236.252 486.73 238.451C487.09 238.924 487.539 239.322 488.052 239.621C488.614 239.947 489.252 240.117 489.901 240.113C490.32 240.11 490.737 240.051 491.141 239.937C491.946 239.675 492.702 239.279 493.376 238.767C495.26 242.277 497.144 244.816 498.653 245.694C499.005 245.912 499.409 246.034 499.823 246.045C499.901 246.056 499.979 246.056 500.057 246.045C500.283 246.002 500.496 245.907 500.681 245.77C500.865 245.632 501.016 245.454 501.122 245.249C501.929 243.904 501.964 240.99 501.356 237.141C501.969 237.256 502.592 237.319 503.216 237.328C504.049 237.362 504.876 237.176 505.615 236.79C506.054 236.531 506.414 236.156 506.654 235.706C506.893 235.256 507.003 234.748 506.972 234.239C506.937 231.805 504.702 228.319 501.227 224.996ZM497.214 231.77C496.821 232.475 496.392 233.159 495.927 233.818C495.154 233.443 494.335 233.022 493.47 232.519C492.604 232.016 491.773 231.501 490.989 230.963C490.533 229.793 490.076 228.553 489.644 227.266C489.211 225.979 488.836 224.785 488.473 223.615C488.801 222.89 489.152 222.164 489.55 221.45C489.948 220.737 490.392 220.035 490.825 219.403C491.609 219.777 492.428 220.198 493.294 220.702C494.16 221.205 495.073 221.778 495.903 222.34C496.36 223.51 496.804 224.68 497.249 226.025C497.693 227.371 498.009 228.365 498.325 229.465C498.021 230.226 497.635 230.975 497.214 231.77ZM498.384 225.791C498.126 225.019 497.857 224.259 497.588 223.521C498.372 224.106 499.109 224.691 499.8 225.323C499.589 226.131 499.343 226.961 499.039 227.792C498.805 227.137 498.594 226.47 498.36 225.791H498.384ZM493.493 219.192C492.892 218.849 492.307 218.533 491.738 218.244C492.244 217.616 492.799 217.029 493.399 216.489C493.949 217.601 494.511 218.83 495.073 220.152C494.534 219.824 494.008 219.496 493.47 219.192H493.493ZM488.52 220.222C488.31 220.608 488.099 220.994 487.912 221.392C487.596 220.163 487.327 219.052 487.116 217.94C487.911 218.165 488.692 218.435 489.456 218.748C489.082 219.274 488.778 219.707 488.532 220.222H488.52ZM488.52 227.5C488.789 228.284 489.058 229.044 489.339 229.84C488.509 229.22 487.725 228.576 486.999 227.933C487.227 227.042 487.501 226.163 487.818 225.3C488.052 226.002 488.286 226.739 488.532 227.465L488.52 227.5ZM493.294 234.028C493.891 234.368 494.464 234.672 495.037 234.965C494.556 235.57 494.028 236.137 493.458 236.661C492.92 235.585 492.381 234.415 491.855 233.151C492.346 233.443 492.826 233.748 493.317 234.028H493.294ZM498.267 232.999C498.513 232.566 498.735 232.133 498.945 231.688C499.285 232.975 499.566 234.192 499.788 235.316C498.968 235.083 498.164 234.802 497.378 234.473C497.705 234.005 498.009 233.514 498.29 232.999H498.267ZM496.676 221.298C495.892 219.298 495.073 217.461 494.254 215.811C494.842 215.371 495.504 215.038 496.207 214.828C496.531 214.737 496.866 214.69 497.202 214.688C497.673 214.676 498.138 214.793 498.548 215.027C498.856 215.212 499.126 215.454 499.343 215.741C500.455 217.215 500.759 220.315 500.057 223.931C498.991 222.99 497.878 222.103 496.722 221.275L496.676 221.298ZM490.205 217.566C489.095 217.065 487.949 216.647 486.777 216.314C486.192 212.687 486.262 210.195 486.847 209.223C486.888 209.108 486.956 209.004 487.046 208.92C487.135 208.837 487.244 208.776 487.362 208.744H487.467C487.693 208.756 487.911 208.829 488.099 208.954C489.211 209.598 490.814 211.68 492.557 214.933C491.688 215.715 490.907 216.59 490.229 217.542L490.205 217.566ZM487.14 223.03C486.611 224.275 486.177 225.558 485.841 226.868C482.846 223.966 481.055 221.158 481.055 219.438C481.043 219.12 481.119 218.804 481.276 218.527C481.433 218.25 481.665 218.023 481.945 217.87C482.561 217.563 483.246 217.418 483.934 217.449C484.579 217.457 485.222 217.532 485.853 217.671C486.192 219.274 486.625 221.099 487.163 223.007L487.14 223.03ZM490.193 232.063C490.966 233.982 491.761 235.772 492.534 237.41C491.724 238.052 490.752 238.457 489.725 238.58C489.278 238.625 488.828 238.552 488.417 238.369C488.007 238.187 487.651 237.901 487.385 237.539C486.274 236.053 485.97 232.952 486.672 229.348C487.803 230.31 488.986 231.209 490.217 232.039L490.193 232.063ZM496.535 235.702C497.67 236.221 498.844 236.651 500.045 236.989C500.642 240.628 500.572 243.132 499.987 244.114C499.935 244.218 499.86 244.31 499.77 244.383C499.679 244.455 499.573 244.507 499.46 244.536C498.395 244.723 496.395 242.348 494.207 238.217C495.084 237.453 495.872 236.594 496.558 235.655L496.535 235.702ZM499.671 230.085C500.146 228.886 500.537 227.654 500.841 226.4C503.836 229.301 505.626 232.11 505.626 233.83C505.636 234.147 505.559 234.462 505.402 234.738C505.245 235.015 505.015 235.243 504.737 235.397C503.533 235.891 502.199 235.969 500.946 235.62C500.7 233.888 500.232 232.028 499.694 230.062L499.671 230.085Z" fill="#FFC100"/>
<path d="M495.774 227.979C495.774 229.734 494.71 230.542 493.434 229.781C492.716 229.258 492.13 228.574 491.723 227.784C491.317 226.993 491.101 226.118 491.094 225.23C491.094 223.486 492.159 222.679 493.434 223.44C494.151 223.961 494.736 224.644 495.143 225.432C495.549 226.22 495.765 227.093 495.774 227.979Z" fill="#FFC100"/>
<g opacity="0.65">
<path d="M501.227 224.996C502.058 220.783 501.718 216.911 500.057 214.711C499.701 214.195 499.226 213.772 498.672 213.479C498.118 213.185 497.501 213.03 496.874 213.026H496.582C495.463 213.135 494.393 213.539 493.481 214.196C491.141 209.773 488.801 207.059 487.128 207.059H486.882C486.658 207.102 486.446 207.196 486.263 207.334C486.081 207.472 485.932 207.65 485.829 207.854C485.022 209.2 484.975 212.113 485.583 215.939C484.132 215.532 482.585 215.644 481.207 216.255C480.767 216.513 480.406 216.888 480.167 217.338C479.927 217.789 479.817 218.297 479.85 218.806C479.85 221.345 482.085 224.832 485.56 228.167C484.729 232.379 485.069 236.252 486.73 238.451C487.09 238.924 487.539 239.322 488.052 239.621C488.614 239.947 489.252 240.117 489.901 240.113C490.32 240.11 490.737 240.051 491.141 239.937C491.946 239.675 492.702 239.279 493.376 238.767C495.26 242.277 497.144 244.816 498.653 245.694C499.005 245.912 499.409 246.034 499.823 246.045C499.901 246.056 499.979 246.056 500.057 246.045C500.283 246.002 500.496 245.907 500.681 245.77C500.865 245.632 501.016 245.454 501.122 245.249C501.929 243.904 501.964 240.99 501.356 237.141C501.969 237.256 502.592 237.319 503.216 237.328C504.049 237.362 504.876 237.176 505.615 236.79C506.054 236.531 506.414 236.156 506.654 235.706C506.893 235.256 507.003 234.748 506.972 234.239C506.937 231.805 504.702 228.319 501.227 224.996ZM497.214 231.77C496.821 232.475 496.392 233.159 495.927 233.818C495.154 233.443 494.335 233.022 493.47 232.519C492.604 232.016 491.773 231.501 490.989 230.963C490.533 229.793 490.076 228.553 489.644 227.266C489.211 225.979 488.836 224.785 488.473 223.615C488.801 222.89 489.152 222.164 489.55 221.45C489.948 220.737 490.392 220.035 490.825 219.403C491.609 219.777 492.428 220.198 493.294 220.702C494.16 221.205 495.073 221.778 495.903 222.34C496.36 223.51 496.804 224.68 497.249 226.025C497.693 227.371 498.009 228.365 498.325 229.465C498.021 230.226 497.635 230.975 497.214 231.77ZM498.384 225.791C498.126 225.019 497.857 224.259 497.588 223.521C498.372 224.106 499.109 224.691 499.8 225.323C499.589 226.131 499.343 226.961 499.039 227.792C498.805 227.137 498.594 226.47 498.36 225.791H498.384ZM493.493 219.192C492.892 218.849 492.307 218.533 491.738 218.244C492.244 217.616 492.799 217.029 493.399 216.489C493.949 217.601 494.511 218.83 495.073 220.152C494.534 219.824 494.008 219.496 493.47 219.192H493.493ZM488.52 220.222C488.31 220.608 488.099 220.994 487.912 221.392C487.596 220.163 487.327 219.052 487.116 217.94C487.911 218.165 488.692 218.435 489.456 218.748C489.082 219.274 488.778 219.707 488.532 220.222H488.52ZM488.52 227.5C488.789 228.284 489.058 229.044 489.339 229.84C488.509 229.22 487.725 228.576 486.999 227.933C487.227 227.042 487.501 226.163 487.818 225.3C488.052 226.002 488.286 226.739 488.532 227.465L488.52 227.5ZM493.294 234.028C493.891 234.368 494.464 234.672 495.037 234.965C494.556 235.57 494.028 236.137 493.458 236.661C492.92 235.585 492.381 234.415 491.855 233.151C492.346 233.443 492.826 233.748 493.317 234.028H493.294ZM498.267 232.999C498.513 232.566 498.735 232.133 498.945 231.688C499.285 232.975 499.566 234.192 499.788 235.316C498.968 235.083 498.164 234.802 497.378 234.473C497.705 234.005 498.009 233.514 498.29 232.999H498.267ZM496.676 221.298C495.892 219.298 495.073 217.461 494.254 215.811C494.842 215.371 495.504 215.038 496.207 214.828C496.531 214.737 496.866 214.69 497.202 214.688C497.673 214.676 498.138 214.793 498.548 215.027C498.856 215.212 499.126 215.454 499.343 215.741C500.455 217.215 500.759 220.315 500.057 223.931C498.991 222.99 497.878 222.103 496.722 221.275L496.676 221.298ZM490.205 217.566C489.095 217.065 487.949 216.647 486.777 216.314C486.192 212.687 486.262 210.195 486.847 209.223C486.888 209.108 486.956 209.004 487.046 208.92C487.135 208.837 487.244 208.776 487.362 208.744H487.467C487.693 208.756 487.911 208.829 488.099 208.954C489.211 209.598 490.814 211.68 492.557 214.933C491.688 215.715 490.907 216.59 490.229 217.542L490.205 217.566ZM487.14 223.03C486.611 224.275 486.177 225.558 485.841 226.868C482.846 223.966 481.055 221.158 481.055 219.438C481.043 219.12 481.119 218.804 481.276 218.527C481.433 218.25 481.665 218.023 481.945 217.87C482.561 217.563 483.246 217.418 483.934 217.449C484.579 217.457 485.222 217.532 485.853 217.671C486.192 219.274 486.625 221.099 487.163 223.007L487.14 223.03ZM490.193 232.063C490.966 233.982 491.761 235.772 492.534 237.41C491.724 238.052 490.752 238.457 489.725 238.58C489.278 238.625 488.828 238.552 488.417 238.369C488.007 238.187 487.651 237.901 487.385 237.539C486.274 236.053 485.97 232.952 486.672 229.348C487.803 230.31 488.986 231.209 490.217 232.039L490.193 232.063ZM496.535 235.702C497.67 236.221 498.844 236.651 500.045 236.989C500.642 240.628 500.572 243.132 499.987 244.114C499.935 244.218 499.86 244.31 499.77 244.383C499.679 244.455 499.573 244.507 499.46 244.536C498.395 244.723 496.395 242.348 494.207 238.217C495.084 237.453 495.872 236.594 496.558 235.655L496.535 235.702ZM499.671 230.085C500.146 228.886 500.537 227.654 500.841 226.4C503.836 229.301 505.626 232.11 505.626 233.83C505.636 234.147 505.559 234.462 505.402 234.738C505.245 235.015 505.015 235.243 504.737 235.397C503.533 235.891 502.199 235.969 500.946 235.62C500.7 233.888 500.232 232.028 499.694 230.062L499.671 230.085Z" fill="white"/>
<path d="M495.774 227.979C495.774 229.734 494.71 230.542 493.434 229.781C492.716 229.258 492.13 228.574 491.723 227.784C491.317 226.993 491.101 226.118 491.094 225.23C491.094 223.486 492.159 222.679 493.434 223.44C494.151 223.961 494.736 224.644 495.143 225.432C495.549 226.22 495.765 227.093 495.774 227.979Z" fill="white"/>
</g>
<path d="M445.369 273.354C449.944 274.243 452.026 275.799 454.624 282.141C457.221 288.483 461.866 303.927 462.943 308.175C463.434 310.07 451.418 327.059 451.933 326.802C452.085 326.732 447.252 318.612 447.252 318.612L453.161 307.332L448.961 297.059L445.369 273.354Z" fill="#FFA8A7"/>
<path d="M443.824 273.448C443.824 273.448 447.99 272.699 450.751 274.992C453.512 277.285 453.934 278.818 455.806 283.522C457.678 288.225 460.743 298.03 460.743 298.03C460.743 298.03 459.854 303.296 451.278 304.337L443.93 287.781C443.93 287.781 441.367 277.777 443.824 273.448Z" fill="#FFC100"/>
<path d="M435.213 409.302C434.956 410.789 435.048 412.315 435.482 413.76C436.241 415.523 437.492 417.03 439.085 418.101C440.239 419.173 441.247 420.393 442.081 421.728C442.896 423.197 443.952 424.518 445.205 425.636C446.176 426.479 448.926 426.561 450.248 425.999C451.57 425.437 452.026 424.946 451.944 422.828C451.862 420.71 445.439 419.985 445.439 419.985L435.213 409.302Z" fill="#455A64"/>
<path d="M451.09 416.522C451.629 416.721 451.769 417.762 451.851 419.845C451.921 421.413 452.576 423.706 450.412 424.689C449.452 425.073 448.4 425.168 447.387 424.96C446.374 424.752 445.444 424.251 444.714 423.519C443.239 421.67 442.245 420.008 440.15 417.797C438.325 415.843 436.441 415.188 435.622 411.28C435.107 408.776 435.517 407.77 437.202 407.009C439.542 406.026 443.181 409.256 444.994 409.759C446.586 410.168 450.564 416.311 451.09 416.522Z" fill="#FFC100"/>
<path opacity="0.2" d="M451.09 416.522C451.629 416.721 451.769 417.762 451.851 419.845C451.921 421.413 452.576 423.706 450.412 424.689C449.452 425.073 448.4 425.168 447.387 424.96C446.374 424.752 445.444 424.251 444.714 423.519C443.239 421.67 442.245 420.008 440.15 417.797C438.325 415.843 436.441 415.188 435.622 411.28C435.107 408.776 435.517 407.77 437.202 407.009C439.542 406.026 443.181 409.256 444.994 409.759C446.586 410.168 450.564 416.311 451.09 416.522Z" fill="black"/>
<path d="M445.018 409.724L444.713 409.618C443.658 409.675 442.636 410.01 441.753 410.589C440.869 411.169 440.154 411.972 439.682 412.918C439.378 413.608 440.326 414.088 440.852 413.608C441.356 412.691 442.077 411.912 442.952 411.338C443.827 410.765 444.83 410.415 445.872 410.32C445.629 410.068 445.338 409.865 445.018 409.724Z" fill="#FAFAFA"/>
<path d="M446.515 410.905C445.523 411.015 444.575 411.373 443.757 411.946C442.939 412.518 442.278 413.287 441.835 414.182C441.531 414.86 442.479 415.352 443.005 414.86C443.432 414.065 444.029 413.372 444.752 412.833C445.476 412.293 446.31 411.918 447.194 411.736C447.007 411.444 446.761 411.163 446.515 410.905Z" fill="#FAFAFA"/>
<path d="M406.02 441.373C405.669 443.129 406.301 444.041 408.57 445.352C411.549 446.822 414.987 447.062 418.142 446.019C421.886 444.93 423.676 443.304 425.232 442.906C426.788 442.508 430.638 442.485 432.17 442.04C433.703 441.596 433.68 440.8 433.68 438.951L406.02 441.373Z" fill="#455A64"/>
<path d="M432.17 430.036C432.17 430.036 432.896 432.259 433.34 434.189C433.656 435.734 434.101 438.296 433.563 439.455C433.025 440.613 430.918 441.362 427.713 441.338C425.606 441.338 422.307 442.754 420.06 444.006C417.797 445.126 415.231 445.483 412.748 445.024C409.846 444.685 406.897 443 406.383 441.806C405.868 440.613 405.786 439.7 412.619 436.787C412.689 436.787 420.552 433.862 423.851 430.211L432.17 430.036Z" fill="#FFC100"/>
<g opacity="0.2">
<path d="M432.17 430.036C432.17 430.036 432.896 432.259 433.34 434.189C433.656 435.734 434.101 438.296 433.563 439.455C433.025 440.613 430.918 441.362 427.713 441.338C425.606 441.338 422.307 442.754 420.06 444.006C417.797 445.126 415.231 445.483 412.748 445.024C409.846 444.685 406.897 443 406.383 441.806C405.868 440.613 405.786 439.7 412.619 436.787C412.689 436.787 420.552 433.862 423.851 430.211L432.17 430.036Z" fill="black"/>
</g>
<path d="M419.031 444.462C419.031 444.462 418.446 438.612 413.683 436.916C409.366 435.395 405.61 438.589 406.02 441.374C406.3 443.234 411.554 447.434 419.031 444.462Z" fill="#FAFAFA"/>
<path d="M414.889 435.816C416.103 435.929 417.246 436.439 418.141 437.267C419.522 438.437 419.557 439.186 419.557 439.186C419.663 439.295 419.801 439.368 419.951 439.395C420.101 439.421 420.255 439.4 420.392 439.334C420.53 439.268 420.642 439.161 420.715 439.027C420.788 438.893 420.817 438.74 420.797 438.589C420.797 438.589 420.482 435.629 416.585 435.079C416.261 435.008 415.922 435.041 415.618 435.173C415.313 435.305 415.058 435.53 414.889 435.816Z" fill="#FAFAFA"/>
<path d="M417.615 434.564C418.837 434.573 420.01 435.04 420.903 435.874C422.272 437.044 422.284 437.945 422.284 437.945C422.39 438.055 422.527 438.128 422.677 438.154C422.827 438.181 422.982 438.16 423.119 438.094C423.256 438.028 423.369 437.92 423.442 437.787C423.514 437.653 423.543 437.5 423.524 437.349C423.524 437.349 423.208 434.388 419.312 433.78C418.982 433.713 418.64 433.753 418.335 433.894C418.03 434.035 417.778 434.27 417.615 434.564Z" fill="#FAFAFA"/>
<path d="M420.318 432.961C421.538 432.888 422.741 433.276 423.688 434.049C425.138 435.102 425.209 436.015 425.209 436.015C425.323 436.106 425.462 436.161 425.608 436.172C425.754 436.183 425.899 436.149 426.026 436.076C426.153 436.003 426.254 435.893 426.317 435.761C426.38 435.629 426.401 435.481 426.379 435.336C426.379 435.336 425.852 432.399 421.921 432.06C421.593 432.026 421.263 432.094 420.976 432.255C420.689 432.417 420.459 432.663 420.318 432.961Z" fill="#FAFAFA"/>
<path d="M451.09 413.164V417.142C450.135 417.754 449.031 418.093 447.897 418.124C446.763 418.155 445.642 417.876 444.655 417.317C444.538 417.072 444.222 413.164 444.222 413.164H451.09Z" fill="#FFA8A7"/>
<path d="M432.171 427.286C432.171 427.286 432.171 429.182 432.171 430.258C432.171 431.335 430.907 432.949 427.607 432.832C425.267 432.75 423.676 432.118 423.758 430.211V427.462L432.171 427.286Z" fill="#FFA8A7"/>
<path d="M455.396 379.396C455.185 370.995 453.465 367.309 453.465 367.309C453.465 367.309 454.097 356.943 455.501 344.247C457.619 324.93 456.671 321.186 452.834 312.481C452.834 312.481 420.294 309.193 419.312 322.707C418.071 339.544 417.931 373.791 418.376 379.735C418.82 385.679 418.808 380.191 420.259 392.231C421.429 401.756 423.769 427.462 423.769 427.462C425.079 428.124 426.531 428.455 427.998 428.424C429.465 428.393 430.902 428.003 432.182 427.286C432.182 427.286 434.838 395.835 434.522 388.967C434.489 385.443 434.22 381.925 433.715 378.436C433.715 378.436 437.518 351.303 438.103 346.939C438.103 346.939 438.629 354.755 439.085 360.698C439.542 366.642 439.495 371.439 440.747 383.737C441.73 393.39 444.105 414.228 444.105 414.228C445.25 414.693 446.486 414.887 447.718 414.796C448.95 414.705 450.144 414.33 451.207 413.702C451.207 413.702 455.572 386.182 455.396 379.396Z" fill="#455A64"/>
<path d="M436.722 414.135C436.722 414.135 436.897 409.455 443.181 408.846L443.543 409.045C442.836 407.912 441.736 407.079 440.454 406.705C439.605 406.396 438.68 406.364 437.812 406.614C436.943 406.865 436.177 407.384 435.622 408.097C434.522 409.466 435.634 413.234 436.722 414.135Z" fill="#FAFAFA"/>
<path d="M428.707 268.978L430.24 281.544L441.285 280.55L440.033 266.591L428.707 268.978Z" fill="#FFA8A7"/>
<path d="M452.073 279.427C450.903 276.127 448.072 272.664 443.883 273.448C442.713 273.658 441.8 273.81 440.759 274.021C440.665 276.923 435.201 278.42 429.772 276.665C428.134 277.133 426.636 277.613 425.279 278.093C421.383 279.485 419.827 285.944 419.733 296.814C419.639 307.683 418.072 329.259 418.072 329.259C418.072 329.259 426.262 333.6 441.554 330.827C456.847 328.054 456.601 322.847 456.601 322.847C456.601 322.847 456.297 316.506 449.394 305.858C455.256 290.285 453.875 284.341 452.073 279.427Z" fill="#37474F"/>
<path d="M420.494 253.007C419.828 251.503 419.556 249.855 419.704 248.218C419.851 246.58 420.413 245.007 421.336 243.646C425.045 237.796 432.194 236.825 440.665 239.107C443.621 240.013 446.226 241.81 448.123 244.252C450.02 246.693 451.118 249.661 451.266 252.749C451.676 258.962 434.347 263.549 434.733 267.808L420.494 253.007Z" fill="#263238"/>
<path d="M420.131 255.37C420.131 255.37 417.791 259.138 418.106 259.524C418.688 259.888 419.33 260.146 420.002 260.285L420.131 255.37Z" fill="#F28F8F"/>
<path d="M427.303 243.424C424.963 244.711 420.891 247.098 420.072 255.909C419.23 264.953 421.313 268.03 422.576 269.177C423.43 269.949 427.713 270.125 429.924 269.376C432.697 268.428 438.664 265.281 441.379 260.554C444.573 254.984 445.065 247.683 441.133 244.922C439.143 243.522 436.831 242.65 434.412 242.388C431.993 242.126 429.547 242.482 427.303 243.424Z" fill="#FFA8A7"/>
<path d="M427.42 254.06C425.897 253.492 424.558 252.519 423.546 251.247C422.534 249.976 421.887 248.452 421.675 246.841C420.798 241.096 427.958 238.65 427.958 238.65L427.42 254.06Z" fill="#263238"/>
<path d="M426.601 243.845C426.601 243.845 424.752 252.129 427.385 257.254C427.385 257.254 428.754 254.013 431.527 254.855C434.3 255.698 434.183 259.419 432.042 261.361C431.501 261.919 430.812 262.313 430.056 262.495C429.3 262.677 428.508 262.641 427.771 262.391C428.704 264.735 430.11 266.862 431.902 268.639C431.902 268.639 440.092 272.313 447.276 264.263C453.746 256.95 452.541 244.208 442.596 241.201C432.65 238.194 426.601 243.845 426.601 243.845Z" fill="#263238"/>
<path d="M460.743 276.244C457.76 276.244 454.899 275.06 452.788 272.951C450.678 270.843 449.49 267.983 449.487 265V246.185C452.471 246.185 455.332 247.37 457.442 249.478C459.553 251.586 460.74 254.446 460.743 257.43V276.244Z" fill="#263238"/>
<path d="M450.739 243.717C450.496 243.795 450.271 243.92 450.077 244.086C449.883 244.251 449.723 244.453 449.607 244.68C449.49 244.907 449.42 245.155 449.4 245.409C449.379 245.663 449.409 245.919 449.487 246.162L453.185 244.992C453.109 244.747 452.985 244.52 452.821 244.323C452.657 244.126 452.455 243.963 452.228 243.845C452 243.726 451.752 243.654 451.496 243.632C451.241 243.61 450.984 243.639 450.739 243.717Z" fill="#263238"/>
<path d="M397.268 298.007C395.665 296.17 395.396 292.157 393.266 289.337C391.137 286.517 391.511 283.744 390.177 284.996C388.844 286.248 389.838 290.846 389.838 290.846C389.838 290.846 387.346 295.468 387.135 297.867C386.925 300.265 393.173 306.162 393.173 306.162L397.268 298.007Z" fill="#FFA8A7"/>
<path d="M390.154 290.495C390.154 290.495 387.615 294.005 376.207 289.419C373.059 288.132 375.189 294.906 379.05 297.714C382.63 300.312 387.1 301.119 390.68 303.565C390.692 303.19 390.154 290.495 390.154 290.495Z" fill="#FFA8A7"/>
<path d="M426.18 277.777C422.939 278.947 420.096 280.21 417.054 285.909C413.157 293.233 406.079 307.578 406.079 307.578L397.268 298.007C397.268 298.007 395.981 296.193 393.594 300.148C391.207 304.103 392.26 305.191 392.26 305.191C392.26 305.191 402.533 318.951 404.417 320.694C406.301 322.438 409.401 321.092 411.437 318.354C413.473 315.616 423.91 296.673 423.91 296.673C423.91 296.673 430.778 284.68 426.18 277.777Z" fill="#FFA8A7"/>
<path d="M427.76 277.25C425.69 277.431 423.699 278.129 421.969 279.28C420.24 280.431 418.827 281.998 417.861 283.838C413.976 290.858 409.881 298.779 409.881 298.779C409.881 298.779 412.701 305.577 419.873 306.092C419.873 305.39 425.724 294.977 427.958 290.519C430.193 286.061 429.959 279.251 427.76 277.25Z" fill="#FFC100"/>
<path d="M438.126 346.962L438.746 340.386C442.285 339.86 445.669 338.579 448.668 336.63C448.668 336.63 446.551 340.012 440.759 341.556L439.448 347.98L439.109 360.734L438.126 346.962Z" fill="#37474F"/>
</svg>
