<svg width="43" height="43" viewBox="0 0 43 43" fill="none" xmlns="http://www.w3.org/2000/svg">
<g clip-path="url(#clip0_10_151)">
<path d="M42.7337 20.86L31.7594 9.88568C31.4181 9.54443 30.8143 9.54443 30.4731 9.88568L28.0939 12.2649C27.7385 12.6203 27.7385 13.1963 28.0939 13.5517L36.046 21.5029L28.0943 29.4555C27.7389 29.8109 27.7389 30.3869 28.0943 30.7423L30.4735 33.1215C30.6442 33.2922 30.8758 33.3886 31.1169 33.3886C31.3576 33.3886 31.5897 33.2922 31.7603 33.1215L42.7337 22.1477C43.0891 21.7919 43.0891 21.2154 42.7337 20.86Z" fill="#FF9A00"/>
<path d="M14.9059 29.4555L6.95513 21.5038L14.9073 13.5526C15.0779 13.382 15.1739 13.1508 15.1739 12.9092C15.1739 12.668 15.0784 12.4365 14.9073 12.2658L12.5281 9.88659C12.3574 9.71596 12.1258 9.61996 11.8847 9.61996C11.6435 9.61996 11.4119 9.71596 11.2413 9.88659L0.26652 20.86C-0.0888402 21.2154 -0.0888402 21.7914 0.26652 22.1472L11.2408 33.1211C11.4115 33.2917 11.6431 33.3882 11.8842 33.3882C12.1254 33.3882 12.357 33.2917 12.5276 33.1211L14.9068 30.7418C15.2622 30.3869 15.2622 29.8109 14.9059 29.4555Z" fill="#FF9A00"/>
<path d="M27.7408 6.19375C27.6252 5.98172 27.4305 5.82429 27.1993 5.75604L25.2705 5.18682C24.7891 5.04395 24.2823 5.32014 24.1403 5.80199L15.1862 36.125C15.118 36.3566 15.1444 36.6055 15.2595 36.8171C15.3746 37.0296 15.5698 37.1866 15.8009 37.2553L17.7297 37.8245C17.8157 37.85 17.9026 37.8623 17.9877 37.8623C18.3804 37.8623 18.743 37.6056 18.8599 37.2093L27.814 6.88582C27.8823 6.65422 27.8563 6.40533 27.7408 6.19375Z" fill="#FF9A00"/>
</g>
<defs>
<clipPath id="clip0_10_151">
<rect width="43" height="43" fill="white"/>
</clipPath>
</defs>
</svg>
