<svg width="55" height="102" viewBox="0 0 55 102" fill="none" xmlns="http://www.w3.org/2000/svg">
<path d="M28 6.25C38.3553 6.25 46.75 14.6447 46.75 25C46.75 35.3553 38.3553 43.75 28 43.75C17.6447 43.75 9.25 35.3553 9.25 25C9.25 14.6447 17.6447 6.25 28 6.25Z" fill="#FFC100"/>
<path d="M34.25 22.9167L28 29.1667L21.75 22.9167M46.75 25C46.75 14.6447 38.3553 6.25 28 6.25C17.6447 6.25 9.25 14.6447 9.25 25C9.25 35.3553 17.6447 43.75 28 43.75C38.3553 43.75 46.75 35.3553 46.75 25Z" stroke="white" stroke-width="2" stroke-linecap="round" stroke-linejoin="round"/>
<path d="M27.5 95.125V53.875" stroke="white" stroke-width="2" stroke-linecap="round" stroke-linejoin="round"/>
</svg>
