<svg width="41" height="41" viewBox="0 0 41 41" fill="none" xmlns="http://www.w3.org/2000/svg">
<path d="M37.1563 15.703H34.7475C34.4938 14.9535 34.2286 14.3295 33.9237 13.7286L33.9634 13.8144L35.6777 12.1181C36.1261 11.7337 36.408 11.1674 36.408 10.5344C36.408 10.0142 36.2171 9.53762 35.9006 9.17247L35.9032 9.17503L31.8314 5.10322C31.4688 4.78803 30.9934 4.59712 30.472 4.59712C29.839 4.59712 29.2714 4.88028 28.8909 5.32744L28.8883 5.33L27.1817 7.03406C26.6667 6.77012 26.044 6.50491 25.4008 6.28325L25.2957 6.25122L25.3073 3.84247C25.3111 3.79122 25.3137 3.73228 25.3137 3.67206C25.3137 2.57787 24.468 1.681 23.3943 1.60028H23.3879H17.6274C16.5461 1.681 15.6992 2.57787 15.6992 3.67206C15.6992 3.73228 15.7017 3.79122 15.7068 3.85016V3.84247V6.24994C14.9573 6.50362 14.3346 6.76756 13.7337 7.07122L13.8196 7.0315L12.1232 5.31975C11.7401 4.86875 11.1725 4.58559 10.5396 4.58559C10.0181 4.58559 9.54275 4.77778 9.17759 5.09425L9.18016 5.09169L5.10706 9.16478C4.79188 9.52737 4.59969 10.004 4.59969 10.5242C4.59969 11.1571 4.88284 11.7247 5.33 12.1053L5.33256 12.1078L7.03534 13.8106C6.77013 14.3269 6.50491 14.9522 6.28325 15.5979L6.2525 15.703L3.84375 15.6915C3.7925 15.6876 3.73356 15.6851 3.67334 15.6851C2.57916 15.6851 1.68228 16.532 1.60156 17.6057V17.6121V23.3713C1.681 24.4527 2.57916 25.2996 3.67334 25.2996C3.73356 25.2996 3.7925 25.297 3.85144 25.2919H3.84375H6.2525C6.50619 26.0414 6.77013 26.6654 7.07506 27.2663L7.03663 27.1817L5.32616 28.873C4.87644 29.2573 4.59328 29.8262 4.59328 30.4604C4.59328 30.9819 4.78419 31.4585 5.10066 31.8237L5.09809 31.8211L9.17119 35.8929C9.49022 36.2081 9.92841 36.4042 10.414 36.4042C10.423 36.4042 10.4319 36.4042 10.4409 36.4042H10.4396C11.0995 36.3875 11.6914 36.1082 12.1155 35.6662L12.1168 35.6649L13.8208 33.9608C14.3372 34.226 14.9624 34.4912 15.6082 34.7129L15.7133 34.7449L15.7017 37.1511C15.6979 37.2024 15.6953 37.2613 15.6953 37.3202C15.6953 38.4144 16.5422 39.3126 17.6159 39.392H17.6223H23.3828C24.4629 39.31 25.3085 38.4144 25.3085 37.3202C25.3085 37.26 25.306 37.2011 25.3008 37.1422V37.1498V34.7398C26.0504 34.4861 26.6756 34.2209 27.2778 33.916L27.192 33.9557L28.8845 35.6636C29.3099 36.1043 29.9005 36.3837 30.5553 36.399H30.5578H30.5604C30.5681 36.399 30.577 36.399 30.5847 36.399C31.069 36.399 31.5072 36.2056 31.8288 35.8929L35.8993 31.8224C36.212 31.5034 36.4054 31.0652 36.4054 30.5822C36.4054 30.5706 36.4054 30.5604 36.4054 30.5488C36.3901 29.8916 36.112 29.3035 35.6726 28.8794L35.6713 28.8781L33.9659 27.1715C34.2299 26.6577 34.4938 26.035 34.7168 25.3918L34.7488 25.2855L37.1563 25.297C37.2075 25.3008 37.2664 25.3034 37.3254 25.3034C38.4208 25.3034 39.3177 24.4565 39.3972 23.3815V23.3751V17.6159C39.3164 16.5345 38.4196 15.6889 37.3241 15.6889C37.2639 15.6889 37.2049 15.6915 37.1473 15.6966H37.155L37.1563 15.703ZM37.1614 23.3828L34.0659 23.3674C34.0403 23.3674 34.0185 23.3802 33.9941 23.3815C33.7404 23.4123 33.5175 23.5289 33.3522 23.7006C33.2818 23.7928 33.2203 23.8966 33.1716 24.0081L33.1677 24.0183C33.1613 24.0362 33.1472 24.0491 33.1421 24.0683C32.8346 25.1497 32.4336 26.0914 31.9326 26.969L31.9659 26.9062C31.8967 27.0344 31.8557 27.1856 31.8557 27.347C31.8557 27.3483 31.8557 27.3508 31.8557 27.3521C31.8557 27.3726 31.8596 27.388 31.8608 27.4098C31.8685 27.6494 31.9633 27.8646 32.1158 28.0261L32.1273 28.0555L34.3144 30.2452C34.4541 30.3848 34.49 30.5207 34.5399 30.4707L30.5655 34.4848C30.4387 34.4682 30.3272 34.4067 30.2478 34.3183L28.0735 32.1235C28.0632 32.112 28.0453 32.1171 28.035 32.1068C27.88 31.9633 27.6763 31.8724 27.4508 31.8596H27.4482C27.4226 31.8557 27.3918 31.8532 27.3611 31.8519C27.2009 31.8519 27.0485 31.8929 26.9178 31.9646L26.9229 31.9621C26.108 32.4259 25.1638 32.8282 24.1733 33.119L24.0785 33.1434C24.0593 33.1485 24.0465 33.1626 24.0286 33.169C23.9056 33.2228 23.7992 33.2869 23.7018 33.3599L23.7057 33.3573C23.6608 33.4009 23.6211 33.4483 23.5865 33.4983L23.584 33.5008C23.5494 33.5431 23.5161 33.5905 23.4879 33.6418L23.4853 33.6469C23.443 33.7507 23.4097 33.8711 23.3918 33.998L23.3905 34.0069C23.3892 34.0274 23.3777 34.0467 23.3777 34.0672V37.1575C23.3777 37.3497 23.3072 37.4753 23.3777 37.4778L17.7274 37.5073C17.6608 37.4215 17.6198 37.3113 17.6198 37.1921C17.6198 37.1819 17.6198 37.1716 17.621 37.1614L17.6364 34.0723C17.6364 34.0505 17.6262 34.0313 17.6236 34.0108C17.6172 33.9429 17.6044 33.8801 17.5852 33.8199L17.5864 33.8263C17.5711 33.7584 17.5506 33.6982 17.5249 33.6405L17.5275 33.6469C17.4609 33.5367 17.3878 33.4419 17.3058 33.3561C17.2687 33.3253 17.2264 33.2971 17.1828 33.2715L17.1777 33.2689C17.1213 33.2305 17.0586 33.1972 16.9907 33.1716L16.9843 33.169C16.9663 33.1626 16.9535 33.1485 16.9343 33.1434C15.8491 32.8346 14.9035 32.4336 14.0233 31.9339L14.0886 31.9672C13.9618 31.898 13.8119 31.857 13.6517 31.857C13.6235 31.8557 13.6005 31.8621 13.5723 31.8634C13.3417 31.8737 13.1341 31.9659 12.9765 32.1107C12.9663 32.1209 12.9509 32.1158 12.9406 32.1261L10.7561 34.3106C10.619 34.4477 10.4793 34.4887 10.528 34.5387L6.51259 30.5655C6.52797 30.4374 6.58947 30.3259 6.67916 30.2452L8.87522 28.0735L8.88931 28.0402C9.03666 27.8826 9.13147 27.6737 9.14172 27.4431V27.4405C9.143 27.4136 9.14813 27.3931 9.14813 27.3662C9.14813 27.3649 9.14813 27.3637 9.14813 27.3624C9.14813 27.2009 9.10713 27.0485 9.03538 26.9165L9.03794 26.9216C8.57028 26.1067 8.16797 25.165 7.88097 24.1733L7.85791 24.0811C7.85278 24.0619 7.83741 24.0478 7.831 24.0286C7.77719 23.9081 7.71569 23.8031 7.64394 23.7082L7.6465 23.7121C7.56322 23.6339 7.47225 23.5622 7.37488 23.5007L7.36719 23.4968C7.30184 23.4648 7.22753 23.4392 7.14809 23.4238L7.14169 23.4225C7.10453 23.411 7.05841 23.402 7.011 23.3956H7.00588C6.98025 23.3931 6.95847 23.3802 6.93156 23.3802H3.84119C3.64644 23.3828 3.52344 23.3098 3.52088 23.3777L3.49269 17.7287C3.57853 17.662 3.68616 17.621 3.80531 17.621C3.81684 17.621 3.82709 17.621 3.83863 17.6223H3.83734L6.93284 17.6377C7.12759 17.6326 7.30697 17.5685 7.45431 17.4634L7.45175 17.466C7.4825 17.4481 7.50813 17.4301 7.53375 17.4109L7.53119 17.4122C7.67084 17.2994 7.77591 17.1482 7.83228 16.9753L7.83356 16.9689C7.83741 16.9561 7.8515 16.9509 7.85534 16.9368C8.16541 15.8516 8.56644 14.9086 9.06741 14.0284L9.03409 14.0925C9.10328 13.9643 9.14428 13.8132 9.14428 13.6517C9.14428 13.6504 9.14428 13.6504 9.14428 13.6492C9.14556 13.6248 9.14044 13.6069 9.13916 13.5825C9.13019 13.3468 9.03666 13.1341 8.88675 12.9739L8.87394 12.9432L6.68941 10.7587C6.55103 10.6177 6.50747 10.4755 6.46391 10.5306L10.4383 6.51516C10.5678 6.52541 10.6805 6.58947 10.7561 6.683L10.7574 6.68428L12.9317 8.87906C12.9547 8.90212 12.9906 8.89316 13.0149 8.91366C13.1751 9.06869 13.3929 9.16478 13.6338 9.16478C13.8003 9.16478 13.9554 9.11866 14.0886 9.03922L14.0848 9.04178C14.8997 8.57541 15.8427 8.17437 16.8331 7.88609L16.9253 7.86303C16.9433 7.85791 16.9561 7.84381 16.974 7.83869C17.047 7.81178 17.1085 7.77847 17.1675 7.74003L17.1636 7.74259C17.3725 7.62728 17.5237 7.42997 17.5749 7.1955L17.5762 7.19037C17.5941 7.13528 17.6082 7.07122 17.6146 7.00459V7.00075C17.6159 6.98025 17.6262 6.96231 17.6262 6.94181V3.85144C17.6262 3.65797 17.6979 3.53241 17.6274 3.53112L23.2778 3.50166C23.3444 3.5875 23.3841 3.69641 23.3841 3.81556C23.3841 3.82709 23.3841 3.83734 23.3828 3.84887L23.3674 6.93797C23.3674 6.95847 23.3777 6.97641 23.379 6.99819C23.3854 7.06866 23.3982 7.134 23.4187 7.19678L23.4174 7.19037C23.5084 7.49019 23.7288 7.72722 24.0119 7.83869L24.0183 7.84125C24.0363 7.84766 24.0503 7.86175 24.0683 7.86687C25.1509 8.17694 26.0927 8.57797 26.9703 9.07766L26.9063 9.04434C27.0408 9.12122 27.2022 9.16734 27.3752 9.16734H27.3765C27.6109 9.15709 27.8211 9.06228 27.9799 8.91366C28.0017 8.89444 28.035 8.90341 28.0555 8.88291L30.2452 6.69837C30.3797 6.56256 30.5181 6.52284 30.4707 6.47287L34.4848 10.4473C34.4695 10.5754 34.4093 10.6856 34.3196 10.7663L32.1222 12.9406L32.1081 12.9739C31.9595 13.1315 31.8647 13.3417 31.8544 13.5736V13.5761C31.8532 13.6017 31.848 13.6223 31.848 13.6479C31.848 13.6492 31.848 13.6504 31.848 13.6517C31.848 13.8132 31.889 13.9656 31.9608 14.0976L31.9582 14.0925C32.4259 14.9073 32.8282 15.8491 33.1139 16.8395L33.137 16.9304C33.1408 16.9458 33.1575 16.9522 33.1613 16.9663C33.2203 17.1418 33.324 17.2905 33.4586 17.4007L33.4598 17.4019C33.4842 17.4212 33.5124 17.4404 33.5406 17.457L33.5444 17.4596C33.6879 17.5621 33.8673 17.6262 34.0595 17.6313H37.1511C37.3459 17.63 37.4689 17.7043 37.4714 17.6326L37.4983 23.2816C37.4151 23.3495 37.3074 23.3905 37.1908 23.3905C37.178 23.3905 37.1665 23.3905 37.1537 23.3892H37.155L37.1614 23.3828ZM20.5 14.4141C17.1393 14.4141 14.4141 17.1393 14.4141 20.5C14.4141 23.8607 17.1393 26.5859 20.5 26.5859C23.8607 26.5859 26.5859 23.8607 26.5859 20.5C26.5821 17.1406 23.8594 14.4179 20.5 14.4141ZM20.5 24.6641C18.2002 24.6641 16.3359 22.7998 16.3359 20.5C16.3359 18.2002 18.2002 16.3359 20.5 16.3359C22.7998 16.3359 24.6641 18.2002 24.6641 20.5C24.6615 22.7986 22.7986 24.6615 20.5 24.6641Z" fill="white"/>
</svg>
