<svg width="40" height="40" viewBox="0 0 40 40" fill="none" xmlns="http://www.w3.org/2000/svg">
<path d="M28.3333 30C28.3333 30.9205 29.0795 31.6667 30 31.6667C30.9205 31.6667 31.6667 30.9205 31.6667 30C31.6667 29.0796 30.9205 28.3334 30 28.3334C29.0795 28.3334 28.3333 29.0796 28.3333 30Z" stroke="white" stroke-width="2" stroke-linecap="round" stroke-linejoin="round"/>
<path d="M18.3333 30C18.3333 30.9205 19.0795 31.6667 20 31.6667C20.9205 31.6667 21.6667 30.9205 21.6667 30C21.6667 29.0796 20.9205 28.3334 20 28.3334C19.0795 28.3334 18.3333 29.0796 18.3333 30Z" stroke="white" stroke-width="2" stroke-linecap="round" stroke-linejoin="round"/>
<path d="M8.33334 30C8.33334 30.9205 9.07953 31.6667 10 31.6667C10.9205 31.6667 11.6667 30.9205 11.6667 30C11.6667 29.0796 10.9205 28.3334 10 28.3334C9.07953 28.3334 8.33334 29.0796 8.33334 30Z" stroke="white" stroke-width="2" stroke-linecap="round" stroke-linejoin="round"/>
<path d="M28.3333 20C28.3333 20.9205 29.0795 21.6667 30 21.6667C30.9205 21.6667 31.6667 20.9205 31.6667 20C31.6667 19.0796 30.9205 18.3334 30 18.3334C29.0795 18.3334 28.3333 19.0796 28.3333 20Z" stroke="white" stroke-width="2" stroke-linecap="round" stroke-linejoin="round"/>
<path d="M18.3333 20C18.3333 20.9205 19.0795 21.6667 20 21.6667C20.9205 21.6667 21.6667 20.9205 21.6667 20C21.6667 19.0796 20.9205 18.3334 20 18.3334C19.0795 18.3334 18.3333 19.0796 18.3333 20Z" stroke="white" stroke-width="2" stroke-linecap="round" stroke-linejoin="round"/>
<path d="M8.33334 20C8.33334 20.9205 9.07953 21.6667 10 21.6667C10.9205 21.6667 11.6667 20.9205 11.6667 20C11.6667 19.0796 10.9205 18.3334 10 18.3334C9.07953 18.3334 8.33334 19.0796 8.33334 20Z" stroke="white" stroke-width="2" stroke-linecap="round" stroke-linejoin="round"/>
<path d="M28.3333 10C28.3333 10.9205 29.0795 11.6667 30 11.6667C30.9205 11.6667 31.6667 10.9205 31.6667 10C31.6667 9.07957 30.9205 8.33337 30 8.33337C29.0795 8.33337 28.3333 9.07957 28.3333 10Z" stroke="white" stroke-width="2" stroke-linecap="round" stroke-linejoin="round"/>
<path d="M18.3333 10C18.3333 10.9205 19.0795 11.6667 20 11.6667C20.9205 11.6667 21.6667 10.9205 21.6667 10C21.6667 9.07957 20.9205 8.33337 20 8.33337C19.0795 8.33337 18.3333 9.07957 18.3333 10Z" stroke="white" stroke-width="2" stroke-linecap="round" stroke-linejoin="round"/>
<path d="M8.33334 10C8.33334 10.9205 9.07953 11.6667 10 11.6667C10.9205 11.6667 11.6667 10.9205 11.6667 10C11.6667 9.07957 10.9205 8.33337 10 8.33337C9.07953 8.33337 8.33334 9.07957 8.33334 10Z" stroke="white" stroke-width="2" stroke-linecap="round" stroke-linejoin="round"/>
</svg>
