<svg width="40" height="40" viewBox="0 0 40 40" fill="none" xmlns="http://www.w3.org/2000/svg">
<path d="M18.3333 30C18.3333 30.9205 19.0794 31.6667 19.9999 31.6667C20.9204 31.6667 21.6666 30.9205 21.6666 30C21.6666 29.0795 20.9204 28.3333 19.9999 28.3333C19.0794 28.3333 18.3333 29.0795 18.3333 30Z" fill="white"/>
<path d="M18.3333 20C18.3333 20.9205 19.0794 21.6667 19.9999 21.6667C20.9204 21.6667 21.6666 20.9205 21.6666 20C21.6666 19.0795 20.9204 18.3333 19.9999 18.3333C19.0794 18.3333 18.3333 19.0795 18.3333 20Z" fill="white"/>
<path d="M18.3333 10C18.3333 10.9205 19.0794 11.6667 19.9999 11.6667C20.9204 11.6667 21.6666 10.9205 21.6666 10C21.6666 9.07954 20.9204 8.33334 19.9999 8.33334C19.0794 8.33334 18.3333 9.07954 18.3333 10Z" fill="white"/>
<path d="M18.3333 30C18.3333 30.9205 19.0794 31.6667 19.9999 31.6667C20.9204 31.6667 21.6666 30.9205 21.6666 30C21.6666 29.0795 20.9204 28.3333 19.9999 28.3333C19.0794 28.3333 18.3333 29.0795 18.3333 30Z" stroke="white" stroke-width="2" stroke-linecap="round" stroke-linejoin="round"/>
<path d="M18.3333 20C18.3333 20.9205 19.0794 21.6667 19.9999 21.6667C20.9204 21.6667 21.6666 20.9205 21.6666 20C21.6666 19.0795 20.9204 18.3333 19.9999 18.3333C19.0794 18.3333 18.3333 19.0795 18.3333 20Z" stroke="white" stroke-width="2" stroke-linecap="round" stroke-linejoin="round"/>
<path d="M18.3333 10C18.3333 10.9205 19.0794 11.6667 19.9999 11.6667C20.9204 11.6667 21.6666 10.9205 21.6666 10C21.6666 9.07954 20.9204 8.33334 19.9999 8.33334C19.0794 8.33334 18.3333 9.07954 18.3333 10Z" stroke="white" stroke-width="2" stroke-linecap="round" stroke-linejoin="round"/>
</svg>
