<svg width="41" height="41" viewBox="0 0 41 41" fill="none" xmlns="http://www.w3.org/2000/svg">
<path d="M32.3093 28.7026H29.5174C28.4604 28.7026 28.1337 27.8621 26.2349 25.9376C24.5808 24.3361 23.8492 24.1208 23.443 24.1208C22.8729 24.1208 22.7102 24.2835 22.7102 25.0702V27.5917C22.7102 28.2708 22.4936 28.6769 20.7037 28.6769C17.0932 28.4348 13.99 26.4655 12.1885 23.5955L12.1616 23.5507C10.0706 20.9536 8.52928 17.8235 7.76694 14.4L7.73875 14.2501C7.73875 13.8439 7.90147 13.4634 8.68816 13.4634H11.48C12.1847 13.4634 12.4563 13.7888 12.7292 14.5473C14.1104 18.5346 16.4167 22.0324 17.3661 22.0324C17.7184 22.0324 17.8811 21.8697 17.8811 20.9753V16.851C17.7722 14.9522 16.769 14.7908 16.769 14.113C16.7805 13.7504 17.0778 13.4608 17.4417 13.4608C17.4532 13.4608 17.4634 13.4608 17.475 13.4621H17.4737H21.8671C22.4642 13.4621 22.6807 13.7875 22.6807 14.4922V20.0528C22.6807 20.6486 22.9523 20.8664 23.115 20.8664C23.4674 20.8664 23.7672 20.6486 24.4168 19.999C25.7672 18.3501 26.9216 16.4641 27.8018 14.4307L27.8608 14.277C28.0466 13.8119 28.4924 13.489 29.0139 13.489C29.0382 13.489 29.0613 13.4903 29.0857 13.4916H29.0818H31.8737C32.7142 13.4916 32.9051 13.9233 32.7142 14.5217C31.5943 16.9881 30.3362 19.1073 28.8781 21.0702L28.9447 20.9753C28.6475 21.4635 28.5386 21.68 28.9447 22.2246C29.242 22.6307 30.2196 23.4712 30.8704 24.231C31.8122 25.1625 32.6014 26.2464 33.1972 27.4431L33.2292 27.5136C33.5008 28.2977 33.0934 28.7051 32.3067 28.7051L32.3093 28.7026ZM26.3989 1.28638H14.6024C3.83606 1.28638 1.28766 3.83478 1.28766 14.6011V26.3976C1.28766 37.1639 3.83606 39.7123 14.6024 39.7123H26.3989C37.1652 39.7123 39.7136 37.1639 39.7136 26.3976V14.6011C39.7136 3.83478 37.137 1.28638 26.3989 1.28638Z" fill="rgba(255, 193, 0, 0.1)"/>
</svg>
